<svg width="24" height="24" viewBox="0 0 24 24" fill="none" xmlns="http://www.w3.org/2000/svg">
<mask id="path-1-inside-1_646_4090" fill="white">
<path fill-rule="evenodd" clip-rule="evenodd" d="M14.5386 21.8834L13.9335 22.9057C13.07 24.3647 10.93 24.3647 10.0665 22.9057L9.46135 21.8834C9.21862 21.4733 9.06555 21.2164 8.93007 21.0305C8.8049 20.8588 8.7328 20.8026 8.67987 20.7719C8.62971 20.7427 8.54399 20.7069 8.32284 20.6823C8.08618 20.6562 7.77572 20.6499 7.28557 20.6414C5.88433 20.6173 4.86088 20.5347 3.96231 20.1626C2.38957 19.5111 1.14003 18.2615 0.488585 16.6888C0.226862 16.057 0.11107 15.3737 0.055044 14.5527C-6.50752e-06 13.7459 -3.62248e-06 12.7471 1.17411e-07 11.4732V11.4419V10.3256V10.2817C-7.05781e-06 8.49187 -1.25933e-05 7.08872 0.106571 5.96775C0.215208 4.82518 0.440451 3.88962 0.945846 3.06489C1.4751 2.20124 2.20124 1.4751 3.06489 0.945846C3.88962 0.440451 4.82518 0.215208 5.96775 0.106571C7.08872 -1.25924e-05 8.49187 -7.0578e-06 10.2817 1.1741e-07H10.3256H13.6744H13.7183C15.5081 -7.05781e-06 16.9113 -1.25933e-05 18.0323 0.106571C19.1748 0.215208 20.1103 0.440451 20.9351 0.945846C21.7988 1.4751 22.525 2.20124 23.0542 3.06489C23.5595 3.88962 23.7848 4.82518 23.8934 5.96775C24 7.08863 24 8.49164 24 10.2813V10.3256V11.4419V11.4725C24 12.7467 24 13.7457 23.945 14.5527C23.8889 15.3737 23.7732 16.057 23.5114 16.6888C22.8599 18.2615 21.6104 19.5111 20.0377 20.1626C19.1392 20.5347 18.1156 20.6173 16.7144 20.6414C16.2242 20.6499 15.9138 20.6562 15.6771 20.6823C15.456 20.7069 15.3703 20.7427 15.32 20.7719C15.2671 20.8026 15.195 20.8588 15.0699 21.0305C14.9344 21.2164 14.7813 21.4733 14.5386 21.8834Z"/>
</mask>
<path d="M13.9335 22.9057L12.6427 22.1416L12.6427 22.1417L13.9335 22.9057ZM14.5386 21.8834L15.8294 22.6475L15.8296 22.6473L14.5386 21.8834ZM10.0665 22.9057L11.3573 22.1417L11.3573 22.1416L10.0665 22.9057ZM9.46135 21.8834L8.17048 22.6474L8.17055 22.6475L9.46135 21.8834ZM8.93007 21.0305L10.1425 20.1472L10.1421 20.1468L8.93007 21.0305ZM8.67987 20.7719L7.92441 22.0678L7.92724 22.0695L8.67987 20.7719ZM8.32284 20.6823L8.48841 19.1915L8.4874 19.1914L8.32284 20.6823ZM7.28557 20.6414L7.31153 19.1417L7.31138 19.1417L7.28557 20.6414ZM3.96231 20.1626L3.38828 21.5484L3.38833 21.5484L3.96231 20.1626ZM0.488585 16.6888L1.8744 16.1148L1.87439 16.1148L0.488585 16.6888ZM0.055044 14.5527L-1.44148 14.6548L-1.44148 14.6548L0.055044 14.5527ZM1.17411e-07 11.4732L1.5 11.4732V11.4732H1.17411e-07ZM1.17411e-07 10.2817H1.5V10.2817L1.17411e-07 10.2817ZM0.106571 5.96775L1.59984 6.10973L1.59984 6.10973L0.106571 5.96775ZM0.945846 3.06489L-0.333113 2.28114L-0.333114 2.28114L0.945846 3.06489ZM3.06489 0.945846L2.28114 -0.333114L2.28114 -0.333113L3.06489 0.945846ZM5.96775 0.106571L6.10973 1.59984L6.10973 1.59984L5.96775 0.106571ZM10.2817 1.1741e-07L10.2817 1.5H10.2817V1.1741e-07ZM13.7183 1.1741e-07V1.5H13.7183L13.7183 1.1741e-07ZM18.0323 0.106571L18.1742 -1.38669L18.1742 -1.38669L18.0323 0.106571ZM20.9351 0.945846L21.7189 -0.333117L21.7188 -0.333152L20.9351 0.945846ZM23.0542 3.06489L24.3332 2.2812L24.3332 2.28116L23.0542 3.06489ZM23.8934 5.96775L22.4001 6.1097L22.4001 6.10979L23.8934 5.96775ZM24 10.2813L22.5 10.2813V10.2813H24ZM24 11.4725H22.5V11.4725L24 11.4725ZM23.945 14.5527L25.4415 14.6548L25.4415 14.6548L23.945 14.5527ZM23.5114 16.6888L22.1256 16.1147L22.1256 16.1148L23.5114 16.6888ZM20.0377 20.1626L20.6117 21.5484L20.6117 21.5484L20.0377 20.1626ZM16.7144 20.6414L16.6886 19.1417L16.6884 19.1417L16.7144 20.6414ZM15.6771 20.6823L15.5126 19.1914L15.5116 19.1915L15.6771 20.6823ZM15.32 20.7719L16.0728 22.0694L16.0747 22.0683L15.32 20.7719ZM15.0699 21.0305L13.8577 20.1469L13.8576 20.1471L15.0699 21.0305ZM15.2243 23.6698L15.8294 22.6475L13.2478 21.1193L12.6427 22.1416L15.2243 23.6698ZM8.77566 23.6697C10.22 26.11 13.78 26.11 15.2243 23.6697L12.6427 22.1417C12.3599 22.6194 11.6401 22.6194 11.3573 22.1417L8.77566 23.6697ZM8.17055 22.6475L8.7757 23.6698L11.3573 22.1416L10.7521 21.1193L8.17055 22.6475ZM7.71768 21.9137C7.80115 22.0283 7.91273 22.2119 8.17048 22.6474L10.7522 21.1194C10.5245 20.7347 10.33 20.4046 10.1425 20.1472L7.71768 21.9137ZM7.92724 22.0695C7.89369 22.05 7.85572 22.0255 7.81683 21.996C7.7793 21.9675 7.75035 21.9415 7.72997 21.9216C7.69268 21.8852 7.68769 21.8726 7.718 21.9142L10.1421 20.1468C9.94726 19.8795 9.72995 19.647 9.43251 19.4744L7.92724 22.0695ZM8.15728 22.1731C8.21404 22.1794 8.20435 22.1821 8.15651 22.1685C8.13024 22.1611 8.09324 22.149 8.04898 22.1303C8.00279 22.1107 7.96069 22.089 7.92441 22.0678L9.43534 19.4761C9.136 19.3016 8.82127 19.2284 8.48841 19.1915L8.15728 22.1731ZM7.25961 22.1412C7.77862 22.1502 8.00707 22.1566 8.15828 22.1733L8.4874 19.1914C8.16529 19.1558 7.77282 19.1497 7.31153 19.1417L7.25961 22.1412ZM3.38833 21.5484C4.57561 22.0401 5.85709 22.1171 7.25977 22.1412L7.31138 19.1417C5.91158 19.1176 5.14615 19.0293 4.53629 18.7767L3.38833 21.5484ZM-0.897233 17.2628C-0.0935459 19.2031 1.448 20.7447 3.38828 21.5484L4.53635 18.7767C3.33115 18.2775 2.37361 17.32 1.8744 16.1148L-0.897233 17.2628ZM-1.44148 14.6548C-1.38023 15.5524 -1.24724 16.4179 -0.897222 17.2629L1.87439 16.1148C1.70096 15.6961 1.60237 15.1951 1.55156 14.4506L-1.44148 14.6548ZM-1.5 11.4732C-1.5 12.7276 -1.5008 13.7853 -1.44148 14.6548L1.55156 14.4506C1.50079 13.7064 1.5 12.7666 1.5 11.4732L-1.5 11.4732ZM-1.5 11.4419V11.4732H1.5V11.4419H-1.5ZM-1.5 10.3256V11.4419H1.5V10.3256H-1.5ZM-1.5 10.2817V10.3256H1.5V10.2817H-1.5ZM-1.38669 5.82577C-1.50156 7.03387 -1.50001 8.51949 -1.5 10.2817L1.5 10.2817C1.49999 8.46424 1.50154 7.14357 1.59984 6.10973L-1.38669 5.82577ZM-0.333114 2.28114C-1.00717 3.38111 -1.26761 4.57329 -1.38669 5.82577L1.59984 6.10973C1.69802 5.07707 1.88807 4.39813 2.22481 3.84864L-0.333114 2.28114ZM2.28114 -0.333113C1.21565 0.31982 0.319821 1.21565 -0.333113 2.28114L2.2248 3.84864C2.63037 3.18682 3.18682 2.63037 3.84864 2.2248L2.28114 -0.333113ZM5.82577 -1.38669C4.57329 -1.26761 3.38111 -1.00717 2.28114 -0.333114L3.84864 2.22481C4.39813 1.88807 5.07707 1.69802 6.10973 1.59984L5.82577 -1.38669ZM10.2817 -1.5C8.51949 -1.50001 7.03388 -1.50156 5.82577 -1.38669L6.10973 1.59984C7.14357 1.50154 8.46424 1.49999 10.2817 1.5L10.2817 -1.5ZM10.3256 -1.5H10.2817V1.5H10.3256V-1.5ZM13.6744 -1.5H10.3256V1.5H13.6744V-1.5ZM13.7183 -1.5H13.6744V1.5H13.7183V-1.5ZM18.1742 -1.38669C16.9661 -1.50156 15.4805 -1.50001 13.7183 -1.5L13.7183 1.5C15.5358 1.49999 16.8564 1.50154 17.8903 1.59984L18.1742 -1.38669ZM21.7188 -0.333152C20.6188 -1.00717 19.4267 -1.2676 18.1742 -1.38669L17.8903 1.59984C18.9229 1.69802 19.6018 1.88807 20.1515 2.22484L21.7188 -0.333152ZM24.3332 2.28116C23.6802 1.21566 22.7844 0.319816 21.7189 -0.333117L20.1514 2.22481C20.8132 2.63038 21.3697 3.18681 21.7752 3.84862L24.3332 2.28116ZM25.3867 5.8258C25.2676 4.57327 25.0071 3.38113 24.3332 2.2812L21.7752 3.84858C22.1119 4.39811 22.302 5.07709 22.4001 6.1097L25.3867 5.8258ZM25.5 10.2813C25.5 8.51928 25.5016 7.03376 25.3867 5.82571L22.4001 6.10979C22.4985 7.1435 22.5 8.46401 22.5 10.2813L25.5 10.2813ZM25.5 10.3256V10.2813H22.5V10.3256H25.5ZM25.5 11.4419V10.3256H22.5V11.4419H25.5ZM25.5 11.4725V11.4419H22.5V11.4725H25.5ZM25.4415 14.6548C25.5008 13.7852 25.5 12.7272 25.5 11.4725L22.5 11.4725C22.5 12.7662 22.4992 13.7063 22.4484 14.4506L25.4415 14.6548ZM24.8972 17.263C25.2473 16.4179 25.3802 15.5523 25.4415 14.6548L22.4485 14.4506C22.3976 15.1951 22.2991 15.6961 22.1256 16.1147L24.8972 17.263ZM20.6117 21.5484C22.552 20.7447 24.0935 19.2031 24.8972 17.2629L22.1256 16.1148C21.6264 17.32 20.6688 18.2775 19.4636 18.7767L20.6117 21.5484ZM16.7402 22.1412C18.1429 22.1171 19.4244 22.0402 20.6117 21.5484L19.4636 18.7767C18.8539 19.0293 18.0884 19.1176 16.6886 19.1417L16.7402 22.1412ZM15.8417 22.1733C15.9929 22.1566 16.2213 22.1502 16.7403 22.1412L16.6884 19.1417C16.2271 19.1497 15.8347 19.1558 15.5126 19.1914L15.8417 22.1733ZM16.0747 22.0683C16.0387 22.0892 15.9968 22.1109 15.9507 22.1304C15.9066 22.1491 15.8696 22.1611 15.8434 22.1686C15.7956 22.1821 15.786 22.1794 15.8427 22.1731L15.5116 19.1915C15.1784 19.2285 14.8642 19.3016 14.5653 19.4756L16.0747 22.0683ZM16.2821 21.914C16.3123 21.8725 16.3073 21.8851 16.27 21.9216C16.2496 21.9415 16.2206 21.9675 16.1831 21.9959C16.1443 22.0254 16.1063 22.0499 16.0728 22.0694L14.5673 19.4745C14.27 19.647 14.0527 19.8795 13.8577 20.1469L16.2821 21.914ZM15.8296 22.6473C16.0873 22.2117 16.1988 22.0283 16.2822 21.9139L13.8576 20.1471C13.6699 20.4046 13.4753 20.7349 13.2477 21.1195L15.8296 22.6473Z" fill="#FE5759" mask="url(#path-1-inside-1_646_4090)"/>
<path d="M7.53516 8.65137H16.4654H7.53516Z" fill="#FE5759"/>
<path d="M7.53516 8.65137H16.4654" stroke="#FE5759" stroke-width="1.5" stroke-linecap="round"/>
<path d="M7.53516 12.5596H13.6747H7.53516Z" fill="#FE5759"/>
<path d="M7.53516 12.5596H13.6747" stroke="#FE5759" stroke-width="1.5" stroke-linecap="round"/>
</svg>
