<svg width="24" height="24" viewBox="0 0 24 24" fill="none" xmlns="http://www.w3.org/2000/svg">
<path fill-rule="evenodd" clip-rule="evenodd" d="M12.5001 8.8374C10.3636 8.8374 8.63159 10.4773 8.63159 12.5002C8.63159 14.5231 10.3636 16.163 12.5001 16.163C14.6367 16.163 16.3687 14.5231 16.3687 12.5002C16.3687 10.4773 14.6367 8.8374 12.5001 8.8374ZM10.179 12.5002C10.179 11.2865 11.2183 10.3025 12.5001 10.3025C13.782 10.3025 14.8213 11.2865 14.8213 12.5002C14.8213 13.7139 13.782 14.6979 12.5001 14.6979C11.2183 14.6979 10.179 13.7139 10.179 12.5002Z" fill="#FD5757"/>
<path fill-rule="evenodd" clip-rule="evenodd" d="M12.4739 2C12.0154 1.99999 11.6326 1.99999 11.3184 2.02029C10.9913 2.04142 10.6823 2.08698 10.3827 2.20446C9.6876 2.47708 9.13531 2.99998 8.84738 3.65814C8.69749 4.00078 8.65689 4.36189 8.64139 4.75438C8.62893 5.0699 8.46075 5.33315 8.21256 5.46882C7.96437 5.60449 7.63949 5.61076 7.34467 5.46322C6.97791 5.27968 6.62732 5.13241 6.23896 5.084C5.493 4.99102 4.73857 5.18242 4.14164 5.61609C3.8844 5.80298 3.68823 6.03356 3.50534 6.29123C3.32965 6.53875 3.13828 6.85261 2.90902 7.22858L2.88297 7.2713C2.65371 7.64726 2.46232 7.96111 2.32377 8.22892C2.17954 8.50772 2.06671 8.78387 2.02438 9.08824C1.92617 9.79454 2.12833 10.5088 2.58635 11.0741C2.82478 11.3681 3.13473 11.5821 3.48593 11.791C3.76837 11.959 3.9251 12.2286 3.92508 12.5C3.92507 12.7713 3.76833 13.0409 3.48593 13.2089C3.13469 13.4178 2.82471 13.6318 2.58626 13.9259C2.12822 14.4911 1.92608 15.2054 2.02428 15.9117C2.06661 16.216 2.17943 16.4922 2.32366 16.771C2.46222 17.0388 2.6536 17.3527 2.88286 17.7286L2.90892 17.7714C3.13817 18.1473 3.32955 18.4612 3.50524 18.7087C3.68813 18.9663 3.8843 19.1969 4.14154 19.3838C4.73846 19.8175 5.49289 20.0089 6.23885 19.9159C6.62719 19.8675 6.97777 19.7203 7.34451 19.5368C7.63937 19.3892 7.96429 19.3954 8.21251 19.5312C8.46073 19.6669 8.62893 19.9301 8.64139 20.2457C8.65689 20.6381 8.6975 20.9992 8.84738 21.3419C9.13531 22 9.6876 22.523 10.3827 22.7956C10.6823 22.9131 10.9913 22.9586 11.3184 22.9797C11.6326 23 12.0154 23 12.4739 23H12.526C12.9845 23 13.3673 23 13.6816 22.9797C14.0087 22.9586 14.3177 22.9131 14.6173 22.7956C15.3124 22.523 15.8647 22 16.1526 21.3419C16.3025 20.9992 16.3431 20.6381 16.3585 20.2456C16.371 19.9301 16.5392 19.6669 16.7874 19.5311C17.0356 19.3954 17.3605 19.3892 17.6554 19.5367C18.0221 19.7202 18.3727 19.8675 18.7611 19.9158C19.507 20.0088 20.2614 19.8175 20.8583 19.3838C21.1156 19.1969 21.3117 18.9663 21.4946 18.7087C21.6703 18.4612 21.8617 18.1473 22.0909 17.7714L22.117 17.7286C22.3462 17.3527 22.5377 17.0387 22.6762 16.7709C22.8205 16.4921 22.9332 16.216 22.9756 15.9117C23.0738 15.2053 22.8716 14.491 22.4136 13.9259C22.1752 13.6317 21.8652 13.4178 21.514 13.2089C21.2316 13.0409 21.0749 12.7713 21.0749 12.4999C21.0749 12.2286 21.2316 11.9591 21.5139 11.7911C21.8653 11.5822 22.1753 11.3683 22.4137 11.0741C22.8717 10.5089 23.0739 9.7946 22.9757 9.08831C22.9333 8.78394 22.8206 8.50779 22.6763 8.22899C22.5378 7.9612 22.3464 7.64737 22.1171 7.27144L22.0911 7.22869C21.8618 6.85271 21.6704 6.53881 21.4947 6.2913C21.3118 6.03363 21.1157 5.80305 20.8584 5.61615C20.2615 5.18249 19.5071 4.99108 18.7611 5.08407C18.3728 5.13248 18.0222 5.27973 17.6555 5.46326C17.3606 5.61082 17.0357 5.60454 16.7875 5.46885C16.5393 5.33317 16.371 5.06988 16.3585 4.75433C16.3431 4.36185 16.3025 4.00076 16.1526 3.65814C15.8647 2.99998 15.3124 2.47708 14.6173 2.20446C14.3177 2.08698 14.0087 2.04142 13.6816 2.02029C13.3673 1.99999 12.9845 1.99999 12.526 2H12.4739ZM10.9749 3.55805C11.0545 3.52684 11.1754 3.49805 11.4237 3.482C11.679 3.46552 12.0087 3.46512 12.5 3.46512C12.9912 3.46512 13.321 3.46552 13.5762 3.482C13.8246 3.49805 13.9455 3.52684 14.025 3.55805C14.341 3.68197 14.5921 3.91965 14.7229 4.21882C14.7643 4.31318 14.7984 4.46029 14.8123 4.80909C14.8428 5.58304 15.2647 6.32824 16.0138 6.73768C16.7627 7.14713 17.6554 7.12048 18.3785 6.75858C18.7044 6.59548 18.8562 6.54999 18.9631 6.53665C19.3021 6.49439 19.6451 6.58139 19.9164 6.77851C19.9848 6.82816 20.0715 6.91292 20.2104 7.10853C20.3532 7.30961 20.5183 7.57975 20.7639 7.98256C21.0096 8.38538 21.1741 8.65591 21.2867 8.87348C21.3961 9.08513 21.4303 9.19867 21.4415 9.27955C21.4862 9.60058 21.3943 9.92527 21.1861 10.1822C21.1204 10.2632 21.003 10.3648 20.6907 10.5505C19.9982 10.9626 19.5276 11.6811 19.5274 12.4999C19.5274 13.3188 19.9981 14.0374 20.6907 14.4495C21.0029 14.6352 21.1203 14.7367 21.186 14.8178C21.3942 15.0747 21.4861 15.3994 21.4414 15.7204C21.4302 15.8013 21.396 15.9148 21.2866 16.1265C21.174 16.344 21.0095 16.6145 20.7638 17.0173C20.5182 17.4202 20.3531 17.6903 20.2103 17.8914C20.0714 18.087 19.9847 18.1718 19.9163 18.2214C19.6449 18.4186 19.302 18.5055 18.963 18.4633C18.8561 18.4499 18.7043 18.4044 18.3784 18.2414C17.6553 17.8794 16.7626 17.8529 16.0136 18.2623C15.2647 18.6718 14.8428 19.4169 14.8123 20.1909C14.7984 20.5397 14.7643 20.6868 14.7229 20.7812C14.5921 21.0803 14.341 21.318 14.025 21.442C13.9455 21.4732 13.8246 21.502 13.5762 21.518C13.321 21.5345 12.9912 21.5349 12.5 21.5349C12.0087 21.5349 11.679 21.5345 11.4237 21.518C11.1754 21.502 11.0545 21.4732 10.9749 21.442C10.659 21.318 10.4079 21.0803 10.277 20.7812C10.2357 20.6868 10.2015 20.5397 10.1877 20.1909C10.1572 19.417 9.73524 18.6718 8.98622 18.2623C8.2372 17.8529 7.34463 17.8795 6.62143 18.2414C6.29551 18.4045 6.14384 18.45 6.03688 18.4633C5.6978 18.5056 5.35488 18.4186 5.08356 18.2215C5.0152 18.1719 4.92841 18.0871 4.78957 17.8914C4.64685 17.6904 4.48163 17.4203 4.23601 17.0174C3.99037 16.6146 3.82589 16.3441 3.71333 16.1266C3.60383 15.9149 3.56971 15.8013 3.55846 15.7204C3.51382 15.3994 3.60571 15.0747 3.81391 14.8178C3.87958 14.7368 3.99703 14.6352 4.30919 14.4495C5.00179 14.0375 5.47246 13.3189 5.4725 12.5001C5.47255 11.6811 5.00187 10.9625 4.3092 10.5504C3.99712 10.3647 3.87968 10.2631 3.814 10.1821C3.60581 9.9252 3.51393 9.60053 3.55857 9.27948C3.56981 9.19861 3.60394 9.08506 3.71343 8.87342C3.82599 8.65584 3.99047 8.38531 4.2361 7.98249C4.48174 7.57968 4.64694 7.30954 4.78967 7.10846C4.92852 6.91286 5.01531 6.8281 5.08365 6.77845C5.35499 6.58132 5.69791 6.49432 6.03698 6.53659C6.14394 6.54992 6.29562 6.59542 6.62158 6.75854C7.34474 7.12044 8.23727 7.14707 8.98626 6.73765C9.73525 6.32823 10.1572 5.58306 10.1877 4.80914C10.2015 4.46031 10.2357 4.31319 10.277 4.21882C10.4079 3.91965 10.659 3.68197 10.9749 3.55805Z" fill="#FD5757"/>
</svg>
