<svg width="24" height="24" viewBox="0 0 24 24" fill="none" xmlns="http://www.w3.org/2000/svg">
<path fill-rule="evenodd" clip-rule="evenodd" d="M13.4673 6.10868C13.4673 3.97763 15.1947 2.25 17.3258 2.25C19.457 2.25 21.1846 3.97757 21.1846 6.10868C21.1846 8.23979 19.457 9.96736 17.3258 9.96736C15.1947 9.96736 13.4673 8.23973 13.4673 6.10868Z" fill="url(#paint0_linear_646_4148)"/>
<path fill-rule="evenodd" clip-rule="evenodd" d="M2.25 6.10868C2.25 3.97759 3.97761 2.25 6.10869 2.25C8.23978 2.25 9.96736 3.97759 9.96736 6.10868C9.96736 8.23976 8.23978 9.96736 6.10869 9.96736C3.97761 9.96736 2.25 8.23977 2.25 6.10868Z" fill="url(#paint1_linear_646_4148)"/>
<path fill-rule="evenodd" clip-rule="evenodd" d="M13.4673 17.326C13.4673 15.1949 15.1947 13.4673 17.3258 13.4673C19.457 13.4673 21.1846 15.1949 21.1846 17.326C21.1846 19.4572 19.457 21.1846 17.3258 21.1846C15.1948 21.1846 13.4673 19.4571 13.4673 17.326Z" fill="url(#paint2_linear_646_4148)"/>
<path fill-rule="evenodd" clip-rule="evenodd" d="M2.25 17.326C2.25 15.1949 3.9776 13.4673 6.10869 13.4673C8.23979 13.4673 9.96736 15.1949 9.96736 17.326C9.96736 19.4572 8.23977 21.1846 6.10869 21.1846C3.97762 21.1846 2.25 19.4572 2.25 17.326Z" fill="url(#paint3_linear_646_4148)"/>
<defs>
<linearGradient id="paint0_linear_646_4148" x1="13.4673" y1="6.12827" x2="21.1846" y2="6.12827" gradientUnits="userSpaceOnUse">
<stop stop-color="#FE5759"/>
<stop offset="1" stop-color="#8E52FC"/>
</linearGradient>
<linearGradient id="paint1_linear_646_4148" x1="2.25" y1="6.12827" x2="9.96736" y2="6.12827" gradientUnits="userSpaceOnUse">
<stop stop-color="#FE5759"/>
<stop offset="1" stop-color="#8E52FC"/>
</linearGradient>
<linearGradient id="paint2_linear_646_4148" x1="13.4673" y1="17.3456" x2="21.1846" y2="17.3456" gradientUnits="userSpaceOnUse">
<stop stop-color="#FE5759"/>
<stop offset="1" stop-color="#8E52FC"/>
</linearGradient>
<linearGradient id="paint3_linear_646_4148" x1="2.25" y1="17.3456" x2="9.96736" y2="17.3456" gradientUnits="userSpaceOnUse">
<stop stop-color="#FE5759"/>
<stop offset="1" stop-color="#8E52FC"/>
</linearGradient>
</defs>
</svg>
