<svg width="24" height="24" viewBox="0 0 24 24" fill="none" xmlns="http://www.w3.org/2000/svg">
<path d="M17.3258 9.21736C19.0428 9.21736 20.4346 7.82555 20.4346 6.10868C20.4346 4.3918 19.0428 3 17.3258 3C15.609 3 14.2173 4.3918 14.2173 6.10868C14.2173 7.82555 15.609 9.21736 17.3258 9.21736Z" stroke="#FD5757" stroke-width="1.5" stroke-miterlimit="10" stroke-linecap="round" stroke-linejoin="round"/>
<path d="M6.10869 9.21736C7.82557 9.21736 9.21736 7.82555 9.21736 6.10868C9.21736 4.3918 7.82557 3 6.10869 3C4.39182 3 3 4.3918 3 6.10868C3 7.82555 4.39182 9.21736 6.10869 9.21736Z" stroke="#FD5757" stroke-width="1.5" stroke-miterlimit="10" stroke-linecap="round" stroke-linejoin="round"/>
<path d="M17.3258 20.4346C19.0428 20.4346 20.4346 19.0429 20.4346 17.326C20.4346 15.6091 19.0428 14.2173 17.3258 14.2173C15.609 14.2173 14.2173 15.6091 14.2173 17.326C14.2173 19.0429 15.609 20.4346 17.3258 20.4346Z" stroke="#FD5757" stroke-width="1.5" stroke-miterlimit="10" stroke-linecap="round" stroke-linejoin="round"/>
<path d="M6.10869 20.4346C7.82557 20.4346 9.21736 19.0429 9.21736 17.326C9.21736 15.6091 7.82557 14.2173 6.10869 14.2173C4.39182 14.2173 3 15.6091 3 17.326C3 19.0429 4.39182 20.4346 6.10869 20.4346Z" stroke="#FD5757" stroke-width="1.5" stroke-miterlimit="10" stroke-linecap="round" stroke-linejoin="round"/>
</svg>
