<svg width="24" height="24" viewBox="0 0 24 24" fill="none" xmlns="http://www.w3.org/2000/svg">
<path fill-rule="evenodd" clip-rule="evenodd" d="M9.95057 1.79224C10.6485 1.45282 11.2919 1.25 12 1.25C12.7081 1.25 13.3515 1.45282 14.0494 1.79224C14.7241 2.12034 15.5036 2.60409 16.4772 3.20833L16.5115 3.22962L18.5434 4.4907C19.4648 5.0625 20.2025 5.52035 20.7711 5.95581C21.3599 6.4067 21.8121 6.8659 22.1387 7.46263C22.4646 8.05812 22.6114 8.69174 22.6818 9.4407C22.75 10.1665 22.75 11.0541 22.75 12.1672V13.7799C22.75 15.6837 22.75 17.1866 22.5973 18.3616C22.4406 19.5669 22.1114 20.5401 21.3676 21.3094C20.6204 22.0823 19.6695 22.4277 18.4924 22.5914C17.3515 22.75 15.8944 22.75 14.0581 22.75H9.94191C8.10559 22.75 6.6485 22.75 5.5076 22.5914C4.33046 22.4277 3.37959 22.0823 2.63237 21.3094C1.88856 20.5401 1.55937 19.5669 1.4027 18.3616C1.24998 17.1866 1.24999 15.6837 1.25 13.7799L1.25 12.1672C1.24999 11.0541 1.24999 10.1665 1.31819 9.4407C1.38857 8.69174 1.53535 8.05813 1.86131 7.46263C2.18795 6.86589 2.64015 6.40669 3.2289 5.95581C3.79745 5.52039 4.53511 5.0626 5.45632 4.49087L7.48854 3.22962L7.52271 3.20841C8.49635 2.60413 9.27583 2.12036 9.95057 1.79224Z" fill="url(#paint0_linear_646_4144)"/>
<path d="M14.9412 18.4707H9.05884" stroke="white" stroke-width="1.5" stroke-linecap="round"/>
<defs>
<linearGradient id="paint0_linear_646_4144" x1="1.25" y1="12.0546" x2="22.75" y2="12.0546" gradientUnits="userSpaceOnUse">
<stop stop-color="#FE5759"/>
<stop offset="1" stop-color="#8E52FC"/>
</linearGradient>
</defs>
</svg>
