<svg width="24" height="24" viewBox="0 0 24 24" fill="none" xmlns="http://www.w3.org/2000/svg">
<path d="M14.5386 21.8834L13.9335 22.9057C13.07 24.3647 10.93 24.3647 10.0665 22.9057L9.46135 21.8834C9.21862 21.4733 9.06555 21.2164 8.93007 21.0305C8.8049 20.8588 8.7328 20.8026 8.67987 20.7719C8.62971 20.7427 8.54399 20.7069 8.32284 20.6823C8.08618 20.6562 7.77572 20.6499 7.28557 20.6414C5.88433 20.6173 4.86088 20.5347 3.96231 20.1626C2.38957 19.5111 1.14003 18.2615 0.488584 16.6888C0.226862 16.057 0.11107 15.3737 0.0550439 14.5527C-6.6249e-06 13.7459 -3.73989e-06 12.7471 0 11.4732V11.4419V10.3256V10.2817C-7.17528e-06 8.49187 -1.27107e-05 7.08872 0.106571 5.96775C0.215208 4.82518 0.440451 3.88962 0.945846 3.06489C1.4751 2.20124 2.20124 1.4751 3.06489 0.945846C3.88962 0.44045 4.82518 0.215208 5.96775 0.106571C7.08872 -1.27098e-05 8.49187 -7.17524e-06 10.2817 0H10.3256H13.6744H13.7183C15.5081 -7.17528e-06 16.9113 -1.27107e-05 18.0323 0.106571C19.1748 0.215208 20.1103 0.44045 20.9351 0.945846C21.7988 1.4751 22.525 2.20124 23.0542 3.06489C23.5595 3.88962 23.7848 4.82518 23.8934 5.96775C24 7.08861 24 8.49159 24 10.2812V10.3256V11.4419V11.4725C24 12.7467 24 13.7457 23.945 14.5527C23.8889 15.3737 23.7732 16.057 23.5114 16.6888C22.8599 18.2615 21.6104 19.5111 20.0377 20.1626C19.1392 20.5347 18.1157 20.6173 16.7144 20.6414C16.2242 20.6499 15.9138 20.6562 15.6771 20.6823C15.456 20.7069 15.3703 20.7427 15.32 20.7719C15.2671 20.8026 15.195 20.8588 15.0699 21.0305C14.9344 21.2164 14.7813 21.4733 14.5386 21.8834Z" fill="url(#paint0_linear_646_4180)"/>
<path d="M7.53516 8.65137H16.4654" stroke="white" stroke-width="1.5" stroke-linecap="round"/>
<path d="M7.53516 12.5596H13.6747" stroke="white" stroke-width="1.5" stroke-linecap="round"/>
<defs>
<linearGradient id="paint0_linear_646_4180" x1="-2.35196e-07" y1="12.0609" x2="24" y2="12.0609" gradientUnits="userSpaceOnUse">
<stop stop-color="#FE5759"/>
<stop offset="1" stop-color="#8E52FC"/>
</linearGradient>
</defs>
</svg>
