<svg width="28" height="28" viewBox="0 0 28 28" fill="none" xmlns="http://www.w3.org/2000/svg">
<path d="M14 19.0904L14.0009 13.9991L14 19.0904ZM14.0009 8.90871L14.0009 13.9991L14.0009 8.90871ZM14.0009 13.9991L8.90958 14L14.0009 13.9991ZM14.0009 13.9991L19.0913 13.9991L14.0009 13.9991ZM22.9999 23C27.9706 18.0293 27.9706 9.97071 22.9999 5.00002C18.0293 0.0293264 9.97067 0.0293261 4.99998 5.00002C0.0292929 9.97071 0.0292929 18.0293 4.99998 23C9.97067 27.9707 18.0293 27.9707 22.9999 23Z" fill="white"/>
<path d="M14 19.0904L14.0009 13.9991M14.0009 13.9991L14.0009 8.90871M14.0009 13.9991L8.90958 14M14.0009 13.9991L19.0913 13.9991M22.9999 23C27.9706 18.0293 27.9706 9.97071 22.9999 5.00002C18.0293 0.0293264 9.97067 0.0293264 4.99998 5.00002C0.0292929 9.97071 0.0292929 18.0293 4.99998 23C9.97067 27.9707 18.0293 27.9707 22.9999 23Z" stroke="#8D52FC" stroke-width="1.95" stroke-linecap="round" stroke-linejoin="round"/>
</svg>
