<svg width="19" height="21" viewBox="0 0 19 21" fill="none" xmlns="http://www.w3.org/2000/svg">
<path d="M16.2148 5H14.2148C14.2148 2.2 12.0148 0 9.21484 0C6.41484 0 4.21484 2.2 4.21484 5H2.21484C1.11484 5 0.214844 5.9 0.214844 7V19C0.214844 20.1 1.11484 21 2.21484 21H16.2148C17.3148 21 18.2148 20.1 18.2148 19V7C18.2148 5.9 17.3148 5 16.2148 5ZM9.21484 2C10.9148 2 12.2148 3.3 12.2148 5H6.21484C6.21484 3.3 7.51484 2 9.21484 2ZM16.2148 19H2.21484V7H16.2148V19ZM9.21484 11C7.51484 11 6.21484 9.7 6.21484 8H4.21484C4.21484 10.8 6.41484 13 9.21484 13C12.0148 13 14.2148 10.8 14.2148 8H12.2148C12.2148 9.7 10.9148 11 9.21484 11Z" fill="white"/>
</svg>
