<svg width="19" height="18" viewBox="0 0 19 18" fill="none" xmlns="http://www.w3.org/2000/svg">
<path d="M17.7739 2.83173H14.8492L12.9187 0.901193C12.7066 0.68914 12.4194 0.569824 12.1191 0.569824H7.59528C7.29502 0.569824 7.00775 0.68914 6.7957 0.901193L4.86517 2.83173H1.94052C1.31539 2.83173 0.80957 3.33755 0.80957 3.96268V16.4032C0.80957 17.0283 1.31539 17.5341 1.94052 17.5341H17.7739C18.399 17.5341 18.9048 17.0283 18.9048 16.4032V3.96268C18.9048 3.33755 18.399 2.83173 17.7739 2.83173ZM9.85719 14.1413C7.35892 14.1413 5.33338 12.1157 5.33338 9.61744C5.33338 7.11917 7.35892 5.09363 9.85719 5.09363C12.3555 5.09363 14.381 7.11917 14.381 9.61744C14.381 12.1157 12.3555 14.1413 9.85719 14.1413Z" fill="white"/>
<path d="M9.8573 11.8793C11.1065 11.8793 12.1192 10.8666 12.1192 9.61737C12.1192 8.36816 11.1065 7.35547 9.8573 7.35547C8.60809 7.35547 7.5954 8.36816 7.5954 9.61737C7.5954 10.8666 8.60809 11.8793 9.8573 11.8793Z" fill="white"/>
</svg>
