<svg width="168" height="184" viewBox="0 0 168 184" fill="none" xmlns="http://www.w3.org/2000/svg">
<path d="M139.18 179.614L132.706 99.4925C132.578 97.9119 131.258 96.6941 129.672 96.6941H112.291V92.8411C112.291 80.1977 102.14 69.9116 89.4965 69.9116H89.0947C76.4514 69.9116 66.0302 80.1977 66.0302 92.8411V96.6941H48.919C47.3332 96.6941 46.0131 97.9119 45.8853 99.4925L39.3926 179.84C39.324 180.687 39.6129 181.524 40.1891 182.148C40.7654 182.773 41.577 183.128 42.4263 183.128H136.165C136.167 183.128 136.171 183.128 136.173 183.128C137.854 183.128 139.216 181.766 139.216 180.085C139.216 179.925 139.204 179.767 139.18 179.614ZM72.1171 92.8411C72.1171 83.554 79.8077 75.9985 89.0947 75.9985H89.4965C98.7835 75.9985 106.204 83.554 106.204 92.8411V96.6941H72.1171V92.8411Z" fill="#8F52FA"/>
<path d="M102.603 8.7746C102.819 8.7746 102.927 8.64819 102.982 8.4496C103.541 5.43445 103.505 5.36227 106.646 4.76642C106.863 4.73037 106.989 4.60395 106.989 4.38726C106.989 4.17064 106.863 4.04423 106.646 4.0081C103.523 3.37628 103.613 3.30402 102.982 0.325002C102.927 0.126411 102.819 0 102.603 0C102.386 0 102.278 0.126411 102.223 0.325002C101.592 3.30402 101.7 3.37628 98.5585 4.0081C98.3599 4.04423 98.2155 4.17064 98.2155 4.38726C98.2155 4.60395 98.3599 4.73037 98.5585 4.76642C101.7 5.3984 101.664 5.43445 102.223 8.4496C102.278 8.64819 102.386 8.7746 102.603 8.7746Z" fill="black"/>
<path d="M149.163 21.9362C149.38 21.9362 149.488 21.8098 149.542 21.6112C150.102 18.5961 150.066 18.5239 153.207 17.928C153.424 17.892 153.55 17.7656 153.55 17.5489C153.55 17.3323 153.424 17.2059 153.207 17.1697C150.084 16.5379 150.174 16.4656 149.542 13.4866C149.488 13.288 149.38 13.1616 149.163 13.1616C148.946 13.1616 148.838 13.288 148.784 13.4866C148.152 16.4656 148.26 16.5379 145.119 17.1697C144.92 17.2059 144.776 17.3323 144.776 17.5489C144.776 17.7656 144.92 17.892 145.119 17.928C148.26 18.56 148.224 18.5961 148.784 21.6112C148.838 21.8098 148.946 21.9362 149.163 21.9362Z" fill="#FE5759"/>
<path d="M160.501 87.4572C160.844 87.4572 161.079 87.2406 161.115 86.9156C161.765 82.095 161.927 82.095 166.91 81.1382C167.235 81.0839 167.469 80.8673 167.469 80.5243C167.469 80.1993 167.235 79.9646 166.91 79.9104C161.927 79.2243 161.746 79.0618 161.115 74.151C161.079 73.826 160.844 73.5913 160.501 73.5913C160.176 73.5913 159.941 73.826 159.905 74.1691C159.309 79.0077 159.057 78.9896 154.11 79.9104C153.785 79.9827 153.55 80.1993 153.55 80.5243C153.55 80.8853 153.785 81.0839 154.182 81.1382C159.093 81.9325 159.309 82.0589 159.905 86.8795C159.941 87.2406 160.176 87.4572 160.501 87.4572Z" fill="black"/>
<path d="M130.397 73.5903C130.866 73.5903 131.209 73.2473 131.3 72.7598C132.581 62.8659 133.972 61.3674 143.757 60.284C144.262 60.2299 144.605 59.8507 144.605 59.3814C144.605 58.9119 144.262 58.5508 143.757 58.4786C133.972 57.3953 132.581 55.8968 131.3 46.0029C131.209 45.5154 130.866 45.1904 130.397 45.1904C129.928 45.1904 129.585 45.5154 129.512 46.0029C128.231 55.8968 126.822 57.3953 117.055 58.4786C116.532 58.5508 116.189 58.9119 116.189 59.3814C116.189 59.8507 116.532 60.2299 117.055 60.284C126.804 61.566 128.158 62.884 129.512 72.7598C129.585 73.2473 129.928 73.5903 130.397 73.5903Z" fill="#FE5759"/>
<path d="M33.9647 17.549C34.1813 17.549 34.2897 17.4226 34.3439 17.224C34.9035 14.2089 34.8674 14.1367 38.0087 13.5408C38.2253 13.5048 38.3517 13.3784 38.3517 13.1617C38.3517 12.9451 38.2253 12.8186 38.0087 12.7825C34.8855 12.1507 34.9757 12.0784 34.3439 9.09942C34.2897 8.90083 34.1813 8.77441 33.9647 8.77441C33.7481 8.77441 33.6398 8.90083 33.5856 9.09942C32.9537 12.0784 33.0621 12.1507 29.9208 12.7825C29.7222 12.8186 29.5778 12.9451 29.5778 13.1617C29.5778 13.3784 29.7222 13.5048 29.9208 13.5408C33.0621 14.1728 33.0259 14.2089 33.5856 17.224C33.6398 17.4226 33.7481 17.549 33.9647 17.549Z" fill="#FE5759"/>
<path d="M70.7767 49.6706C71.1197 49.6706 71.3544 49.4539 71.3904 49.129C72.0404 44.3084 72.2029 44.3084 77.1857 43.3515C77.5106 43.2973 77.7453 43.0807 77.7453 42.7377C77.7453 42.4127 77.5106 42.1779 77.1857 42.1238C72.2029 41.4377 72.0223 41.2752 71.3904 36.3643C71.3544 36.0394 71.1197 35.8047 70.7767 35.8047C70.4517 35.8047 70.217 36.0394 70.1809 36.3824C69.5851 41.221 69.3323 41.203 64.3857 42.1238C64.0608 42.196 63.826 42.4127 63.826 42.7377C63.826 43.0987 64.0608 43.2973 64.4579 43.3515C69.3685 44.1459 69.5851 44.2723 70.1809 49.0929C70.217 49.4539 70.4517 49.6706 70.7767 49.6706Z" fill="black"/>
<path d="M6.95064 63.5398C7.29364 63.5398 7.52835 63.3231 7.5644 62.9982C8.21436 58.1775 8.37681 58.1775 13.3596 57.2207C13.6846 57.1664 13.9192 56.9498 13.9192 56.6068C13.9192 56.2818 13.6846 56.0471 13.3596 55.9929C8.37681 55.3069 8.19626 55.1443 7.5644 50.2335C7.52835 49.9085 7.29364 49.6738 6.95064 49.6738C6.62566 49.6738 6.39095 49.9085 6.35483 50.2516C5.75909 55.0902 5.50628 55.0721 0.559687 55.9929C0.234705 56.0652 0 56.2818 0 56.6068C0 56.9679 0.234705 57.1664 0.631862 57.2207C5.54241 58.015 5.75909 58.1414 6.35483 62.962C6.39095 63.3231 6.62566 63.5398 6.95064 63.5398Z" fill="#FE5759"/>
<path d="M43.7858 78.0737C44.2552 78.0737 44.5983 77.7307 44.6885 77.2432C45.9703 67.3493 47.3604 65.8508 57.1454 64.7674C57.6509 64.7133 57.9939 64.3341 57.9939 63.8648C57.9939 63.3953 57.6509 63.0342 57.1454 62.962C47.3604 61.8787 45.9703 60.3802 44.6885 50.4863C44.5983 49.9988 44.2552 49.6738 43.7858 49.6738C43.3164 49.6738 42.9734 49.9988 42.9012 50.4863C41.6194 60.3802 40.2113 61.8787 30.4442 62.962C29.9208 63.0342 29.5778 63.3953 29.5778 63.8648C29.5778 64.3341 29.9208 64.7133 30.4442 64.7674C40.1932 66.0493 41.5472 67.3674 42.9012 77.2432C42.9734 77.7307 43.3164 78.0737 43.7858 78.0737Z" fill="#8F52FA"/>
</svg>
