<svg width="20" height="20" viewBox="0 0 20 20" fill="none" xmlns="http://www.w3.org/2000/svg">
<path d="M6.27979 7.20898H13.7216" stroke="#8F52FA" stroke-width="1.5" stroke-linecap="round"/>
<path d="M6.27979 10.4668H11.3961" stroke="#8F52FA" stroke-width="1.5" stroke-linecap="round"/>
<mask id="path-3-inside-1_416_39230" fill="white">
<path fill-rule="evenodd" clip-rule="evenodd" d="M12.1155 18.2362L11.6112 19.0881C10.8916 20.3039 9.10837 20.3039 8.38874 19.0881L7.88445 18.2362C7.68218 17.8944 7.55462 17.6804 7.44172 17.5254C7.33741 17.3823 7.27733 17.3355 7.23322 17.3099C7.19142 17.2856 7.11999 17.2557 6.9357 17.2352C6.73848 17.2135 6.47976 17.2083 6.07131 17.2012C4.90361 17.1811 4.05073 17.1123 3.30192 16.8021C1.99131 16.2592 0.950028 15.2179 0.407154 13.9073C0.189051 13.3808 0.0925584 12.8114 0.04587 12.1272C-5.42286e-06 11.4549 -3.01874e-06 10.6226 9.78413e-08 9.56101V9.53488V8.60465V8.5681C-5.88151e-06 7.07655 -1.04894e-05 5.90726 0.0888095 4.97312C0.17934 4.02098 0.367042 3.24135 0.788205 2.55407C1.22925 1.83436 1.83436 1.22925 2.55407 0.788205C3.24135 0.367042 4.02098 0.17934 4.97312 0.0888095C5.90726 -1.04937e-05 7.07655 -5.88149e-06 8.5681 9.78421e-08H8.60465H11.3953H11.4319C12.9234 -5.88151e-06 14.0927 -1.04894e-05 15.0269 0.0888095C15.979 0.17934 16.7586 0.367042 17.4459 0.788205C18.1657 1.22925 18.7708 1.83436 19.2118 2.55407C19.6329 3.24135 19.8206 4.02098 19.9112 4.97312C20 5.90717 20 7.07633 20 8.56767V8.60465V9.53488V9.56039C20 10.6222 20 11.4548 19.9541 12.1272C19.9074 12.8114 19.811 13.3808 19.5928 13.9073C19.0499 15.2179 18.0086 16.2592 16.698 16.8021C15.9493 17.1123 15.0964 17.1811 13.9286 17.2012C13.5202 17.2083 13.2615 17.2135 13.0643 17.2352C12.88 17.2557 12.8086 17.2856 12.7667 17.3099C12.7226 17.3355 12.6625 17.3823 12.5582 17.5254C12.4453 17.6804 12.3178 17.8944 12.1155 18.2362Z"/>
</mask>
<path d="M11.6112 19.0881L10.3204 18.324L10.3204 18.3241L11.6112 19.0881ZM12.1155 18.2362L13.4063 19.0003L13.4065 19.0001L12.1155 18.2362ZM8.38874 19.0881L9.67958 18.3241L9.67954 18.324L8.38874 19.0881ZM7.88445 18.2362L6.59358 19.0002L6.59365 19.0003L7.88445 18.2362ZM7.44172 17.5254L8.65411 16.6422L8.65378 16.6417L7.44172 17.5254ZM7.23322 17.3099L6.47773 18.6058L6.48061 18.6075L7.23322 17.3099ZM6.9357 17.2352L7.10126 15.7444L7.10025 15.7443L6.9357 17.2352ZM6.07131 17.2012L6.09727 15.7014L6.09712 15.7014L6.07131 17.2012ZM3.30192 16.8021L2.72789 18.1879L2.72794 18.188L3.30192 16.8021ZM0.407154 13.9073L1.79297 13.3333L1.79296 13.3333L0.407154 13.9073ZM0.04587 12.1272L-1.45065 12.2294L-1.45065 12.2294L0.04587 12.1272ZM9.78413e-08 9.56101L1.5 9.56101V9.56101H9.78413e-08ZM9.78413e-08 8.5681H1.5V8.5681L9.78413e-08 8.5681ZM0.0888095 4.97312L1.58207 5.11511L1.58207 5.1151L0.0888095 4.97312ZM0.788205 2.55407L-0.490754 1.77032L-0.490755 1.77032L0.788205 2.55407ZM2.55407 0.788205L1.77033 -0.490755L1.77032 -0.490754L2.55407 0.788205ZM4.97312 0.0888095L5.1151 1.58207L5.11511 1.58207L4.97312 0.0888095ZM8.5681 9.78421e-08L8.5681 1.5H8.5681V9.78421e-08ZM11.4319 9.78421e-08V1.5H11.4319L11.4319 9.78421e-08ZM15.0269 0.0888095L15.1689 -1.40446L15.1689 -1.40446L15.0269 0.0888095ZM17.4459 0.788205L18.2297 -0.490759L18.2296 -0.490794L17.4459 0.788205ZM19.2118 2.55407L20.4908 1.77039L20.4908 1.77035L19.2118 2.55407ZM19.9112 4.97312L18.4179 5.11507L18.4179 5.11517L19.9112 4.97312ZM20 8.56767L18.5 8.56767V8.56767H20ZM20 9.56039H18.5V9.5604L20 9.56039ZM19.9541 12.1272L21.4506 12.2294L21.4507 12.2293L19.9541 12.1272ZM19.5928 13.9073L18.2071 13.3332L18.207 13.3333L19.5928 13.9073ZM16.698 16.8021L17.2721 18.1879L17.2721 18.1879L16.698 16.8021ZM13.9286 17.2012L13.9028 15.7014L13.9027 15.7014L13.9286 17.2012ZM13.0643 17.2352L12.8997 15.7443L12.8987 15.7444L13.0643 17.2352ZM12.7667 17.3099L13.5194 18.6074L13.5214 18.6062L12.7667 17.3099ZM12.5582 17.5254L11.346 16.6419L11.3459 16.642L12.5582 17.5254ZM12.9021 19.8522L13.4063 19.0003L10.8247 17.4721L10.3204 18.324L12.9021 19.8522ZM7.09791 19.8521C8.39835 22.0492 11.6016 22.0492 12.9021 19.8521L10.3204 18.3241C10.254 18.4362 10.1433 18.4999 10 18.4999C9.85672 18.4999 9.74596 18.4362 9.67958 18.3241L7.09791 19.8521ZM6.59365 19.0003L7.09794 19.8522L9.67954 18.324L9.17525 17.4721L6.59365 19.0003ZM6.22932 18.4086C6.29022 18.4922 6.37629 18.633 6.59358 19.0002L9.17532 17.4722C8.98808 17.1558 8.81902 16.8685 8.65411 16.6422L6.22932 18.4086ZM6.48061 18.6075C6.44485 18.5867 6.40447 18.5607 6.36288 18.5291C6.32266 18.4986 6.29072 18.47 6.26699 18.4469C6.22298 18.4039 6.20977 18.3818 6.22965 18.4091L8.65378 16.6417C8.47978 16.403 8.27448 16.1798 7.98584 16.0124L6.48061 18.6075ZM6.77014 18.7261C6.80846 18.7303 6.78599 18.7305 6.72892 18.7143C6.69804 18.7055 6.65731 18.6921 6.60997 18.6721C6.56068 18.6512 6.51612 18.6282 6.47774 18.6058L7.98871 16.0141C7.69772 15.8444 7.39726 15.7773 7.10126 15.7444L6.77014 18.7261ZM6.04535 18.701C6.48266 18.7085 6.65937 18.7139 6.77115 18.7262L7.10025 15.7443C6.81759 15.7131 6.47687 15.708 6.09727 15.7014L6.04535 18.701ZM2.72794 18.188C3.76546 18.6177 4.87637 18.6809 6.0455 18.701L6.09712 15.7014C4.93085 15.6814 4.33601 15.6069 3.87591 15.4163L2.72794 18.188ZM-0.978664 14.4814C-0.283552 16.1595 1.04973 17.4928 2.72789 18.1879L3.87596 15.4163C2.93289 15.0257 2.18361 14.2764 1.79297 13.3333L-0.978664 14.4814ZM-1.45065 12.2294C-1.39874 12.9901 -1.28505 13.7417 -0.978653 14.4814L1.79296 13.3333C1.66315 13.0199 1.58385 12.6328 1.54239 12.0251L-1.45065 12.2294ZM-1.5 9.561C-1.5 10.6031 -1.5008 11.4943 -1.45065 12.2294L1.54239 12.0251C1.50079 11.4154 1.5 10.6421 1.5 9.56101L-1.5 9.561ZM-1.5 9.53488V9.56101H1.5V9.53488H-1.5ZM-1.5 8.60465V9.53488H1.5V8.60465H-1.5ZM-1.5 8.5681V8.60465H1.5V8.5681H-1.5ZM-1.40446 4.83114C-1.50156 5.85242 -1.50001 7.10418 -1.5 8.56811L1.5 8.5681C1.49999 7.04893 1.50154 5.96211 1.58207 5.11511L-1.40446 4.83114ZM-0.490755 1.77032C-1.08058 2.73283 -1.30348 3.76909 -1.40446 4.83114L1.58207 5.1151C1.66215 4.27287 1.81467 3.74986 2.06716 3.33782L-0.490755 1.77032ZM1.77032 -0.490754C0.848781 0.0739704 0.0739705 0.848781 -0.490754 1.77032L2.06716 3.33782C2.38452 2.81994 2.81994 2.38452 3.33782 2.06716L1.77032 -0.490754ZM4.83114 -1.40446C3.76909 -1.30348 2.73283 -1.08058 1.77033 -0.490755L3.33782 2.06716C3.74986 1.81467 4.27287 1.66215 5.1151 1.58207L4.83114 -1.40446ZM8.56811 -1.5C7.10418 -1.50001 5.85242 -1.50156 4.83114 -1.40446L5.11511 1.58207C5.96211 1.50154 7.04893 1.49999 8.5681 1.5L8.56811 -1.5ZM8.60465 -1.5H8.5681V1.5H8.60465V-1.5ZM11.3953 -1.5H8.60465V1.5H11.3953V-1.5ZM11.4319 -1.5H11.3953V1.5H11.4319V-1.5ZM15.1689 -1.40446C14.1476 -1.50156 12.8958 -1.50001 11.4319 -1.5L11.4319 1.5C12.9511 1.49999 14.0379 1.50154 14.8849 1.58207L15.1689 -1.40446ZM18.2296 -0.490794C17.2671 -1.08057 16.2309 -1.30347 15.1689 -1.40446L14.8849 1.58207C15.727 1.66215 16.2501 1.81466 16.6623 2.0672L18.2296 -0.490794ZM20.4908 1.77035C19.9261 0.848784 19.1512 0.0739662 18.2297 -0.490759L16.6622 2.06717C17.1801 2.38453 17.6155 2.81994 17.9328 3.3378L20.4908 1.77035ZM21.4044 4.83117C21.3035 3.76908 21.0805 2.73286 20.4908 1.77039L17.9328 3.33776C18.1853 3.74984 18.3378 4.27289 18.4179 5.11507L21.4044 4.83117ZM21.5 8.56768C21.5 7.10396 21.5016 5.8523 21.4044 4.83108L18.4179 5.11517C18.4985 5.96204 18.5 7.04869 18.5 8.56767L21.5 8.56768ZM21.5 8.60465V8.56767H18.5V8.60465H21.5ZM21.5 9.53488V8.60465H18.5V9.53488H21.5ZM21.5 9.56039V9.53488H18.5V9.56039H21.5ZM21.4507 12.2293C21.5008 11.4942 21.5 10.6027 21.5 9.56038L18.5 9.5604C18.5 10.6417 18.4992 11.4153 18.4576 12.0252L21.4507 12.2293ZM20.9786 14.4815C21.2851 13.7418 21.3987 12.9901 21.4506 12.2294L18.4576 12.0251C18.4161 12.6328 18.3369 13.0199 18.2071 13.3332L20.9786 14.4815ZM17.2721 18.1879C18.9502 17.4928 20.2835 16.1595 20.9786 14.4814L18.207 13.3333C17.8164 14.2764 17.0671 15.0257 16.124 15.4163L17.2721 18.1879ZM13.9545 18.701C15.1236 18.6809 16.2346 18.6177 17.2721 18.1879L16.124 15.4163C15.664 15.6068 15.0692 15.6814 13.9028 15.7014L13.9545 18.701ZM13.2288 18.7262C13.3406 18.7139 13.5173 18.7085 13.9546 18.701L13.9027 15.7014C13.5231 15.708 13.1824 15.7131 12.8997 15.7443L13.2288 18.7262ZM13.5214 18.6062C13.4833 18.6284 13.4389 18.6514 13.3897 18.6722C13.3425 18.6922 13.3018 18.7056 13.271 18.7143C13.214 18.7305 13.1915 18.7303 13.2298 18.7261L12.8987 15.7444C12.6024 15.7773 12.3025 15.8445 12.0119 16.0137L13.5214 18.6062ZM13.7704 18.4089C13.7902 18.3817 13.777 18.4038 13.733 18.4468C13.7092 18.47 13.6773 18.4986 13.6371 18.5291C13.5955 18.5606 13.5551 18.5867 13.5194 18.6074L12.014 16.0125C11.7254 16.1799 11.5201 16.403 11.346 16.6419L13.7704 18.4089ZM13.4065 19.0001C13.6238 18.6328 13.7097 18.4922 13.7705 18.4088L11.3459 16.642C11.1809 16.8685 11.0118 17.156 10.8246 17.4723L13.4065 19.0001Z" fill="#8F52FA" mask="url(#path-3-inside-1_416_39230)"/>
</svg>
