<svg width="16" height="20" viewBox="0 0 16 20" fill="none" xmlns="http://www.w3.org/2000/svg">
<path d="M0.693586 9.14104C0.836605 9.00279 1.02868 8.92703 1.22756 8.9304C1.42645 8.93378 1.61584 9.01602 1.75409 9.15904L4.15859 11.6483L9.68984 6.18154C9.83402 6.05745 10.02 5.99279 10.21 6.00064C10.4001 6.00849 10.5801 6.08827 10.7135 6.22382C10.847 6.35937 10.9239 6.54057 10.9288 6.73073C10.9337 6.92089 10.8662 7.10581 10.7398 7.24804L4.67159 13.248C4.53177 13.3863 4.34323 13.4642 4.14659 13.4648H4.13984C4.04086 13.4642 3.94298 13.444 3.85185 13.4054C3.76071 13.3667 3.67812 13.3105 3.60884 13.2398L0.675586 10.2015C0.537343 10.0585 0.461576 9.86644 0.464952 9.66756C0.468328 9.46868 0.55057 9.27928 0.693586 9.14104ZM14.1898 6.18154L8.66084 11.6483L8.46359 11.4435C8.39524 11.3723 8.31349 11.3152 8.22305 11.2757C8.1326 11.2361 8.03523 11.2148 7.93652 11.2129C7.83781 11.211 7.7397 11.2287 7.64783 11.2648C7.55595 11.301 7.47212 11.3549 7.40113 11.4235C7.33015 11.4921 7.27341 11.5741 7.23417 11.6647C7.19493 11.7553 7.17396 11.8527 7.17247 11.9514C7.17098 12.0502 7.18899 12.1482 7.22548 12.2399C7.26197 12.3317 7.31621 12.4153 7.38509 12.486L8.10959 13.236C8.17887 13.3067 8.26146 13.363 8.3526 13.4016C8.44373 13.4402 8.54161 13.4604 8.64059 13.461H8.64884C8.84548 13.4604 9.03402 13.3826 9.17384 13.2443L15.2421 7.24429C15.3657 7.10143 15.4309 6.91718 15.4245 6.72836C15.4182 6.53955 15.3408 6.36009 15.2079 6.22584C15.075 6.09159 14.8963 6.01245 14.7075 6.00424C14.5188 5.99603 14.3339 6.05934 14.1898 6.18154Z" fill="#FD5757"/>
</svg>
