<svg width="18" height="18" viewBox="0 0 18 18" fill="none" xmlns="http://www.w3.org/2000/svg">
<path d="M14.625 9C14.625 8.85082 14.6843 8.70774 14.7898 8.60225C14.8952 8.49676 15.0383 8.4375 15.1875 8.4375C15.3367 8.4375 15.4798 8.49676 15.5852 8.60225C15.6907 8.70774 15.75 8.85082 15.75 9V15.1875C15.75 15.3367 15.6907 15.4798 15.5852 15.5852C15.4798 15.6907 15.3367 15.75 15.1875 15.75H2.8125C2.66332 15.75 2.52024 15.6907 2.41475 15.5852C2.30926 15.4798 2.25 15.3367 2.25 15.1875V2.8125C2.25 2.66332 2.30926 2.52024 2.41475 2.41475C2.52024 2.30926 2.66332 2.25 2.8125 2.25H9C9.14918 2.25 9.29226 2.30926 9.39775 2.41475C9.50324 2.52024 9.5625 2.66332 9.5625 2.8125C9.5625 2.96168 9.50324 3.10476 9.39775 3.21025C9.29226 3.31574 9.14918 3.375 9 3.375H3.375V14.625H14.625V9Z" fill="#8F52FA"/>
<path d="M8.26089 9.74241L9.18901 9.60966L14.8905 3.90929C14.9442 3.8574 14.9871 3.79533 15.0166 3.7267C15.0461 3.65808 15.0616 3.58427 15.0622 3.50958C15.0629 3.43489 15.0486 3.36082 15.0203 3.29169C14.9921 3.22256 14.9503 3.15976 14.8975 3.10694C14.8447 3.05413 14.7819 3.01236 14.7127 2.98408C14.6436 2.95579 14.5695 2.94156 14.4948 2.94221C14.4202 2.94286 14.3463 2.95838 14.2777 2.98786C14.2091 3.01734 14.147 3.06019 14.0951 3.11391L8.39251 8.81429L8.25976 9.74241H8.26089ZM15.6859 2.31741C15.8427 2.47413 15.9671 2.6602 16.052 2.86501C16.1368 3.06982 16.1805 3.28934 16.1805 3.51104C16.1805 3.73274 16.1368 3.95226 16.052 4.15707C15.9671 4.36188 15.8427 4.54795 15.6859 4.70467L9.85276 10.5378C9.76675 10.6241 9.65502 10.6802 9.53439 10.6975L7.67814 10.963C7.59163 10.9755 7.50342 10.9676 7.4205 10.94C7.33757 10.9123 7.26223 10.8658 7.20043 10.804C7.13863 10.7422 7.09208 10.6669 7.06448 10.5839C7.03687 10.501 7.02896 10.4128 7.04139 10.3263L7.30689 8.47004C7.32393 8.34955 7.37959 8.23784 7.46551 8.15166L13.2998 2.31854C13.6162 2.00218 14.0454 1.82446 14.4928 1.82446C14.9403 1.82446 15.3694 2.00218 15.6859 2.31854V2.31741Z" fill="#8F52FA"/>
</svg>
