<svg width="21" height="20" viewBox="0 0 21 20" fill="none" xmlns="http://www.w3.org/2000/svg">
<path d="M10.4274 15.6629L15.7824 18.4778C15.8071 18.4908 15.835 18.4966 15.8629 18.4945C15.8907 18.4925 15.9175 18.4828 15.9401 18.4664C15.9627 18.45 15.9804 18.4276 15.991 18.4018C16.0016 18.3759 16.0048 18.3477 16.0002 18.3201L14.9788 12.3568L19.3093 8.13438C19.3291 8.11482 19.3431 8.09015 19.3497 8.06311C19.3563 8.03607 19.3553 8.00772 19.3467 7.98124C19.3381 7.95475 19.3224 7.93117 19.3012 7.91312C19.28 7.89507 19.2542 7.88327 19.2267 7.87902L13.2393 7.00781L10.5626 1.58223C10.5503 1.55684 10.5311 1.53542 10.5072 1.52043C10.4833 1.50545 10.4556 1.4975 10.4274 1.4975C10.3992 1.4975 10.3716 1.50545 10.3476 1.52043C10.3237 1.53542 10.3045 1.55684 10.2922 1.58223L7.61549 7.00781L1.62813 7.87902C1.60062 7.88327 1.57483 7.89507 1.55364 7.91312C1.53245 7.93117 1.51669 7.95475 1.50812 7.98124C1.49955 8.00772 1.49851 8.03607 1.50511 8.06311C1.51172 8.09015 1.5257 8.11482 1.54552 8.13438L5.87606 12.3568L4.85313 18.3201C4.84855 18.3477 4.85175 18.3759 4.86236 18.4018C4.87298 18.4276 4.89059 18.45 4.91321 18.4664C4.93584 18.4828 4.96258 18.4925 4.99045 18.4945C5.01831 18.4966 5.04618 18.4908 5.07094 18.4778L10.4274 15.6629ZM5.77091 19.8087C5.49797 19.9522 5.19032 20.0164 4.88275 19.9942C4.57519 19.9719 4.27999 19.8641 4.03054 19.6828C3.7811 19.5015 3.58737 19.254 3.47127 18.9683C3.35516 18.6826 3.32132 18.3702 3.37357 18.0662L4.26281 12.881L0.498554 9.21138C0.277883 8.99613 0.12183 8.72343 0.0480374 8.42412C-0.025755 8.12481 -0.0143439 7.81083 0.0809807 7.51767C0.176305 7.22451 0.351742 6.96386 0.587456 6.76519C0.823171 6.56652 1.10976 6.43775 1.41483 6.39345L6.6196 5.63639L8.94785 0.919807C9.08442 0.64366 9.29548 0.411196 9.55719 0.248663C9.8189 0.0861293 10.1208 0 10.4289 0C10.737 0 11.0389 0.0861293 11.3006 0.248663C11.5624 0.411196 11.7734 0.64366 11.91 0.919807L14.2382 5.63639L19.4445 6.39345C19.7496 6.43775 20.0362 6.56652 20.2719 6.76519C20.5076 6.96386 20.683 7.22451 20.7784 7.51767C20.8737 7.81083 20.8851 8.12481 20.8113 8.42412C20.7375 8.72343 20.5815 8.99613 20.3608 9.21138L16.5935 12.8825L17.4828 18.0677C17.535 18.3717 17.5012 18.6841 17.3851 18.9698C17.269 19.2555 17.0752 19.503 16.8258 19.6843C16.5763 19.8656 16.2811 19.9734 15.9736 19.9957C15.666 20.0179 15.3584 19.9537 15.0854 19.8102L10.4274 17.3588L5.77091 19.8072V19.8087Z" fill="#8F52FA"/>
</svg>
