<svg width="26" height="26" viewBox="0 0 26 26" fill="none" xmlns="http://www.w3.org/2000/svg">
<g clip-path="url(#clip0_824_73684)">
<path d="M12.7829 0C5.72315 0 0 5.72315 0 12.7829C0 18.7775 4.12734 23.8079 9.69505 25.1894V16.6893H7.05922V12.7829H9.69505V11.0996C9.69505 6.74885 11.6641 4.73222 15.9357 4.73222C16.7456 4.73222 18.143 4.89124 18.7146 5.04975V8.59061C18.413 8.55891 17.8889 8.54306 17.238 8.54306C15.1421 8.54306 14.3322 9.33713 14.3322 11.4013V12.7829H18.5076L17.7902 16.6893H14.3322V25.4722C20.6617 24.7078 25.5663 19.3185 25.5663 12.7829C25.5658 5.72315 19.8426 0 12.7829 0Z" fill="#8F52FA"/>
</g>
<defs>
<clipPath id="clip0_824_73684">
<rect width="25.5658" height="25.5658" fill="white"/>
</clipPath>
</defs>
</svg>
