<svg width="26" height="26" viewBox="0 0 26 26" fill="none" xmlns="http://www.w3.org/2000/svg">
<g clip-path="url(#clip0_824_73683)">
<path d="M12.7829 2.30192C16.1983 2.30192 16.6028 2.3169 17.946 2.37682C19.1943 2.43174 19.8684 2.64146 20.3178 2.81623C20.912 3.04592 21.3414 3.32555 21.7858 3.76995C22.2352 4.21935 22.5099 4.64378 22.7395 5.23799C22.9143 5.68738 23.124 6.36647 23.179 7.60981C23.2389 8.958 23.2539 9.36246 23.2539 12.7729C23.2539 16.1883 23.2389 16.5928 23.179 17.936C23.124 19.1843 22.9143 19.8584 22.7395 20.3078C22.5099 20.902 22.2302 21.3314 21.7858 21.7758C21.3364 22.2252 20.912 22.4999 20.3178 22.7296C19.8684 22.9043 19.1893 23.114 17.946 23.169C16.5978 23.2289 16.1933 23.2439 12.7829 23.2439C9.36746 23.2439 8.963 23.2289 7.6198 23.169C6.37147 23.114 5.69737 22.9043 5.24797 22.7296C4.65377 22.4999 4.22434 22.2202 3.77994 21.7758C3.33054 21.3264 3.05591 20.902 2.82622 20.3078C2.65145 19.8584 2.44173 19.1793 2.3868 17.936C2.32688 16.5878 2.3119 16.1833 2.3119 12.7729C2.3119 9.35747 2.32688 8.95301 2.3868 7.60981C2.44173 6.36148 2.65145 5.68738 2.82622 5.23799C3.05591 4.64378 3.33553 4.21436 3.77994 3.76995C4.22934 3.32055 4.65377 3.04592 5.24797 2.81623C5.69737 2.64146 6.37646 2.43174 7.6198 2.37682C8.963 2.3169 9.36746 2.30192 12.7829 2.30192ZM12.7829 0C9.31253 0 8.87811 0.0149799 7.51494 0.0748997C6.15676 0.134819 5.22301 0.354525 4.41409 0.669104C3.57022 0.998663 2.85618 1.43308 2.14713 2.14712C1.43308 2.85618 0.998663 3.57022 0.669104 4.4091C0.354525 5.22301 0.134819 6.15176 0.0748997 7.50994C0.0149799 8.87811 0 9.31253 0 12.7829C0 16.2532 0.0149799 16.6877 0.0748997 18.0508C0.134819 19.409 0.354525 20.3428 0.669104 21.1517C0.998663 21.9955 1.43308 22.7096 2.14713 23.4186C2.85618 24.1277 3.57022 24.5671 4.4091 24.8917C5.22301 25.2062 6.15176 25.4259 7.50994 25.4859C8.87312 25.5458 9.30754 25.5608 12.7779 25.5608C16.2482 25.5608 16.6827 25.5458 18.0458 25.4859C19.404 25.4259 20.3378 25.2062 21.1467 24.8917C21.9856 24.5671 22.6996 24.1277 23.4087 23.4186C24.1177 22.7096 24.5571 21.9955 24.8817 21.1567C25.1963 20.3428 25.416 19.414 25.4759 18.0558C25.5358 16.6926 25.5508 16.2582 25.5508 12.7879C25.5508 9.31752 25.5358 8.8831 25.4759 7.51993C25.416 6.16175 25.1963 5.228 24.8817 4.41908C24.5671 3.57022 24.1327 2.85618 23.4186 2.14712C22.7096 1.43807 21.9955 0.998663 21.1567 0.674097C20.3428 0.359519 19.414 0.139813 18.0558 0.079893C16.6877 0.0149799 16.2532 0 12.7829 0Z" fill="#8F52FA"/>
<path d="M12.783 6.2168C9.15786 6.2168 6.2168 9.15786 6.2168 12.783C6.2168 16.4081 9.15786 19.3492 12.783 19.3492C16.4081 19.3492 19.3492 16.4081 19.3492 12.783C19.3492 9.15786 16.4081 6.2168 12.783 6.2168ZM12.783 17.0423C10.4312 17.0423 8.52371 15.1349 8.52371 12.783C8.52371 10.4312 10.4312 8.52371 12.783 8.52371C15.1349 8.52371 17.0423 10.4312 17.0423 12.783C17.0423 15.1349 15.1349 17.0423 12.783 17.0423Z" fill="#8F52FA"/>
<path d="M21.1421 5.95678C21.1421 6.80564 20.453 7.48973 19.6091 7.48973C18.7603 7.48973 18.0762 6.80065 18.0762 5.95678C18.0762 5.10791 18.7652 4.42383 19.6091 4.42383C20.453 4.42383 21.1421 5.11291 21.1421 5.95678Z" fill="#8F52FA"/>
</g>
<defs>
<clipPath id="clip0_824_73683">
<rect width="25.5658" height="25.5658" fill="white"/>
</clipPath>
</defs>
</svg>
