<svg width="23" height="23" viewBox="0 0 23 23" fill="none" xmlns="http://www.w3.org/2000/svg">
<path d="M14.5349 8.46502C14.1003 8.03041 13.3956 8.03044 12.961 8.46506C12.5266 8.89971 12.5266 9.60439 12.9612 10.0389L14.5349 8.46502ZM5.5443 12.2869C5.97892 11.8523 5.97892 11.1478 5.5443 10.7131C5.1097 10.2785 4.40506 10.2785 3.97044 10.7131L5.5443 12.2869ZM8.46509 14.5349C8.89971 14.9696 9.60439 14.9696 10.0389 14.5349C10.4735 14.1003 10.4735 13.3956 10.0389 12.961L8.46509 14.5349ZM17.4558 10.7131C17.0211 11.1478 17.0211 11.8523 17.4558 12.2869C17.8904 12.7215 18.5949 12.7215 19.0295 12.2869L17.4558 10.7131ZM12.9612 10.0389C13.6466 10.7243 14.0316 11.6539 14.0316 12.6233H16.2574C16.2574 11.0636 15.6379 9.56789 14.5349 8.46502L12.9612 10.0389ZM14.0316 12.6233C14.0316 13.5926 13.6466 14.5222 12.9612 15.2076L14.5349 16.7815C15.6379 15.6787 16.2574 14.183 16.2574 12.6233H14.0316ZM12.9612 15.2076L8.46509 19.7038L10.0389 21.2776L14.5349 16.7815L12.9612 15.2076ZM8.46509 19.7038C7.03773 21.1311 4.72358 21.1311 3.29626 19.7038L1.7224 21.2776C4.01895 23.5741 7.74237 23.5741 10.0389 21.2776L8.46509 19.7038ZM3.29626 19.7038C1.86896 18.2765 1.86896 15.9623 3.29626 14.5349L1.7224 12.9612C-0.574133 15.2576 -0.574133 18.981 1.7224 21.2776L3.29626 19.7038ZM3.29626 14.5349L5.5443 12.2869L3.97044 10.7131L1.7224 12.9612L3.29626 14.5349ZM10.0389 12.961C9.35348 12.2756 8.96842 11.346 8.96842 10.3767H6.74257C6.74257 11.9364 7.36217 13.4321 8.46509 14.5349L10.0389 12.961ZM8.96842 10.3767C8.96842 9.40734 9.35348 8.47778 10.0389 7.79237L8.46509 6.21846C7.36217 7.32128 6.74257 8.81706 6.74257 10.3767H8.96842ZM10.0389 7.79237L14.5349 3.29626L12.9612 1.7224L8.46509 6.21846L10.0389 7.79237ZM14.5349 3.29626C15.9623 1.86896 18.2765 1.86896 19.7038 3.29626L21.2776 1.7224C18.981 -0.574133 15.2576 -0.574133 12.9612 1.7224L14.5349 3.29626ZM19.7038 3.29626C21.1311 4.72358 21.1311 7.03773 19.7038 8.46503L21.2776 10.0389C23.5741 7.74237 23.5741 4.01895 21.2776 1.7224L19.7038 3.29626ZM19.7038 8.46503L17.4558 10.7131L19.0295 12.2869L21.2776 10.0389L19.7038 8.46503Z" fill="#8F52FA"/>
</svg>
