<svg width="16" height="15" viewBox="0 0 16 15" fill="none" xmlns="http://www.w3.org/2000/svg">
<path d="M9.97931 5.52066C9.69586 5.23723 9.23629 5.23724 8.95284 5.52069C8.66949 5.80416 8.66949 6.26374 8.95294 6.54709L9.97931 5.52066ZM4.11585 8.0132C4.3993 7.72975 4.3993 7.27027 4.11585 6.98682C3.83241 6.70338 3.37286 6.70338 3.08942 6.98682L4.11585 8.0132ZM6.02071 9.47931C6.30416 9.76276 6.76374 9.76276 7.04709 9.47931C7.33054 9.19586 7.33054 8.73629 7.04709 8.45284L6.02071 9.47931ZM11.8842 6.98682C11.6007 7.27027 11.6007 7.72975 11.8842 8.0132C12.1676 8.29665 12.6271 8.29665 12.9106 8.0132L11.8842 6.98682ZM8.95294 6.54709C9.39993 6.99408 9.65106 7.60037 9.65106 8.23258H11.1027C11.1027 7.2154 10.6986 6.23993 9.97931 5.52066L8.95294 6.54709ZM9.65106 8.23258C9.65106 8.86471 9.39993 9.47099 8.95294 9.91798L9.97931 10.9445C10.6986 10.2252 11.1027 9.24977 11.1027 8.23258H9.65106ZM8.95294 9.91798L6.02071 12.8503L7.04709 13.8767L9.97931 10.9445L8.95294 9.91798ZM6.02071 12.8503C5.08982 13.7812 3.5806 13.7812 2.64974 12.8503L1.6233 13.8767C3.12105 15.3744 5.54937 15.3744 7.04709 13.8767L6.02071 12.8503ZM2.64974 12.8503C1.71889 11.9194 1.71889 10.4102 2.64974 9.47931L1.6233 8.45294C0.125566 9.9506 0.125566 12.3789 1.6233 13.8767L2.64974 12.8503ZM2.64974 9.47931L4.11585 8.0132L3.08942 6.98682L1.6233 8.45294L2.64974 9.47931ZM7.04709 8.45284C6.60009 8.00585 6.34897 7.39956 6.34897 6.76744H4.89733C4.89733 7.78462 5.30142 8.76009 6.02071 9.47931L7.04709 8.45284ZM6.34897 6.76744C6.34897 6.13522 6.60009 5.52899 7.04709 5.08198L6.02071 4.05552C5.30142 4.77475 4.89733 5.75026 4.89733 6.76744H6.34897ZM7.04709 5.08198L9.97931 2.14974L8.95294 1.1233L6.02071 4.05552L7.04709 5.08198ZM9.97931 2.14974C10.9102 1.21889 12.4194 1.21889 13.3503 2.14974L14.3767 1.1233C12.8789 -0.374434 10.4506 -0.374434 8.95294 1.1233L9.97931 2.14974ZM13.3503 2.14974C14.2812 3.0806 14.2812 4.58982 13.3503 5.52067L14.3767 6.54709C15.8744 5.04937 15.8744 2.62105 14.3767 1.1233L13.3503 2.14974ZM13.3503 5.52067L11.8842 6.98682L12.9106 8.0132L14.3767 6.54709L13.3503 5.52067Z" fill="black"/>
</svg>
