<svg width="194" height="87" viewBox="0 0 194 87" fill="none" xmlns="http://www.w3.org/2000/svg">
<path d="M20.7865 24.2653C23.1949 24.2653 25.3069 24.7284 27.1225 25.6547C28.9752 26.5811 30.4202 27.9891 31.4577 29.8787C32.4952 31.7684 33.0139 34.1583 33.0139 37.0484V54H27.6783V37.6598C27.6783 34.8067 26.9743 32.6577 25.5663 31.2126C24.1954 29.7676 22.2501 29.0451 19.7305 29.0451C17.8408 29.0451 16.192 29.4156 14.784 30.1566C13.376 30.8977 12.2829 31.9907 11.5048 33.4358C10.7638 34.8808 10.3933 36.6779 10.3933 38.8269V54H5.05768V24.5432H10.1709V32.4909L9.33726 30.3789C10.3006 28.4522 11.7827 26.9516 13.7836 25.877C15.7844 24.8025 18.1187 24.2653 20.7865 24.2653ZM63.786 54.3335C60.6365 54.3335 57.8575 53.6851 55.4491 52.3882C53.0778 51.0914 51.2251 49.3128 49.8912 47.0526C48.5944 44.7924 47.946 42.1987 47.946 39.2716C47.946 36.3444 48.5759 33.7507 49.8356 31.4905C51.1325 29.2303 52.8925 27.4703 55.1156 26.2105C57.3759 24.9137 59.914 24.2653 62.73 24.2653C65.583 24.2653 68.1026 24.8952 70.2887 26.1549C72.4748 27.4147 74.1792 29.1933 75.402 31.4905C76.6618 33.7507 77.2916 36.4 77.2916 39.4383C77.2916 39.6606 77.2731 39.92 77.2361 40.2164C77.2361 40.5128 77.2175 40.7907 77.1805 41.0501H52.1144V37.2152H74.4015L72.234 38.5491C72.271 36.6594 71.882 34.9735 71.0668 33.4914C70.2516 32.0093 69.1215 30.8606 67.6765 30.0455C66.2685 29.1933 64.6196 28.7672 62.73 28.7672C60.8773 28.7672 59.2285 29.1933 57.7834 30.0455C56.3384 30.8606 55.2083 32.0278 54.3931 33.5469C53.578 35.0291 53.1704 36.7335 53.1704 38.6602V39.5495C53.1704 41.5133 53.615 43.2733 54.5043 44.8295C55.4306 46.3486 56.7089 47.5343 58.3392 48.3865C59.9695 49.2387 61.8407 49.6648 63.9527 49.6648C65.6942 49.6648 67.2689 49.3684 68.6769 48.7756C70.122 48.1827 71.3818 47.2935 72.4563 46.1078L75.402 49.5537C74.0681 51.1099 72.4007 52.2956 70.3999 53.1107C68.4361 53.9259 66.2314 54.3335 63.786 54.3335ZM87.3879 54L100.06 37.5486L100.004 40.272L87.9437 24.5432H93.8906L103.117 36.6594H100.838L110.064 24.5432H115.9L103.673 40.3832L103.728 37.5486L116.511 54H110.453L100.727 41.1057L102.894 41.4392L93.3349 54H87.3879ZM138.02 54.3335C135.574 54.3335 133.24 54 131.017 53.3331C128.831 52.6661 127.108 51.8509 125.848 50.8876L128.071 46.6636C129.331 47.5158 130.887 48.2383 132.74 48.8312C134.593 49.424 136.482 49.7204 138.409 49.7204C140.891 49.7204 142.67 49.3684 143.745 48.6644C144.856 47.9604 145.412 46.9785 145.412 45.7187C145.412 44.7924 145.078 44.0699 144.411 43.5512C143.745 43.0324 142.855 42.6434 141.744 42.384C140.669 42.1246 139.465 41.9023 138.131 41.7171C136.797 41.4947 135.463 41.2354 134.129 40.9389C132.795 40.6055 131.573 40.1608 130.461 39.6051C129.35 39.0122 128.46 38.2156 127.793 37.2152C127.126 36.1777 126.793 34.8067 126.793 33.1023C126.793 31.3238 127.293 29.7676 128.294 28.4337C129.294 27.0998 130.702 26.0808 132.518 25.3768C134.37 24.6358 136.556 24.2653 139.076 24.2653C141.003 24.2653 142.948 24.5061 144.912 24.9878C146.913 25.4324 148.543 26.0808 149.803 26.9331L147.524 31.1571C146.19 30.2678 144.801 29.6564 143.355 29.3229C141.91 28.9895 140.465 28.8227 139.02 28.8227C136.686 28.8227 134.945 29.2118 133.796 29.9899C132.647 30.7309 132.073 31.6943 132.073 32.88C132.073 33.8804 132.406 34.6585 133.073 35.2143C133.777 35.7331 134.667 36.1406 135.741 36.4371C136.853 36.7335 138.075 36.9928 139.409 37.2152C140.743 37.4004 142.077 37.6598 143.411 37.9933C144.745 38.2897 145.949 38.7158 147.024 39.2716C148.135 39.8274 149.025 40.6055 149.691 41.6059C150.395 42.6063 150.747 43.9402 150.747 45.6076C150.747 47.3861 150.229 48.9238 149.191 50.2206C148.154 51.5175 146.69 52.5364 144.801 53.2775C142.911 53.9815 140.651 54.3335 138.02 54.3335ZM183.482 54V47.7752L183.204 46.608V35.9924C183.204 33.7322 182.537 31.9907 181.203 30.768C179.907 29.5082 177.943 28.8783 175.312 28.8783C173.571 28.8783 171.866 29.1747 170.199 29.7676C168.531 30.3234 167.123 31.0829 165.975 32.0463L163.752 28.0446C165.271 26.8219 167.086 25.8956 169.198 25.2657C171.347 24.5987 173.589 24.2653 175.923 24.2653C179.962 24.2653 183.075 25.2472 185.261 27.2109C187.447 29.1747 188.54 32.176 188.54 36.2147V54H183.482ZM173.811 54.3335C171.625 54.3335 169.699 53.9629 168.031 53.2219C166.401 52.4808 165.141 51.4619 164.252 50.1651C163.363 48.8312 162.918 47.3305 162.918 45.6632C162.918 44.0699 163.288 42.6248 164.03 41.328C164.808 40.0312 166.049 38.9937 167.753 38.2156C169.495 37.4375 171.829 37.0484 174.756 37.0484H184.094V40.8834H174.979C172.311 40.8834 170.514 41.328 169.587 42.2173C168.661 43.1065 168.198 44.1811 168.198 45.4408C168.198 46.8859 168.772 48.0531 169.921 48.9423C171.07 49.7945 172.663 50.2206 174.701 50.2206C176.702 50.2206 178.443 49.776 179.925 48.8867C181.444 47.9975 182.537 46.7006 183.204 44.9962L184.26 48.6644C183.556 50.4059 182.315 51.7954 180.536 52.8328C178.758 53.8333 176.516 54.3335 173.811 54.3335Z" fill="white"/>
<path d="M12.562 82.144C11.602 82.144 10.684 82 9.808 81.712C8.932 81.412 8.242 81.028 7.738 80.56L8.404 79.156C8.884 79.576 9.496 79.924 10.24 80.2C10.984 80.476 11.758 80.614 12.562 80.614C13.294 80.614 13.888 80.53 14.344 80.362C14.8 80.194 15.136 79.966 15.352 79.678C15.568 79.378 15.676 79.042 15.676 78.67C15.676 78.238 15.532 77.89 15.244 77.626C14.968 77.362 14.602 77.152 14.146 76.996C13.702 76.828 13.21 76.684 12.67 76.564C12.13 76.444 11.584 76.306 11.032 76.15C10.492 75.982 9.994 75.772 9.538 75.52C9.094 75.268 8.734 74.932 8.458 74.512C8.182 74.08 8.044 73.528 8.044 72.856C8.044 72.208 8.212 71.614 8.548 71.074C8.896 70.522 9.424 70.084 10.132 69.76C10.852 69.424 11.764 69.256 12.868 69.256C13.6 69.256 14.326 69.352 15.046 69.544C15.766 69.736 16.39 70.012 16.918 70.372L16.324 71.812C15.784 71.452 15.214 71.194 14.614 71.038C14.014 70.87 13.432 70.786 12.868 70.786C12.16 70.786 11.578 70.876 11.122 71.056C10.666 71.236 10.33 71.476 10.114 71.776C9.91 72.076 9.808 72.412 9.808 72.784C9.808 73.228 9.946 73.582 10.222 73.846C10.51 74.11 10.876 74.32 11.32 74.476C11.776 74.632 12.274 74.776 12.814 74.908C13.354 75.028 13.894 75.166 14.434 75.322C14.986 75.478 15.484 75.682 15.928 75.934C16.384 76.186 16.75 76.522 17.026 76.942C17.302 77.362 17.44 77.902 17.44 78.562C17.44 79.198 17.266 79.792 16.918 80.344C16.57 80.884 16.03 81.322 15.298 81.658C14.578 81.982 13.666 82.144 12.562 82.144ZM37.1057 69.4H38.9057V82H37.1057V69.4ZM29.8697 82H28.0697V69.4H29.8697V82ZM37.2677 76.384H29.6897V74.818H37.2677V76.384ZM56.3651 82.144C55.4051 82.144 54.5111 81.982 53.6831 81.658C52.8671 81.334 52.1591 80.884 51.5591 80.308C50.9591 79.72 50.4911 79.036 50.1551 78.256C49.8191 77.476 49.6511 76.624 49.6511 75.7C49.6511 74.776 49.8191 73.924 50.1551 73.144C50.4911 72.364 50.9591 71.686 51.5591 71.11C52.1591 70.522 52.8671 70.066 53.6831 69.742C54.4991 69.418 55.3931 69.256 56.3651 69.256C57.3251 69.256 58.2071 69.418 59.0111 69.742C59.8271 70.054 60.5351 70.504 61.1351 71.092C61.7471 71.668 62.2151 72.346 62.5391 73.126C62.8751 73.906 63.0431 74.764 63.0431 75.7C63.0431 76.636 62.8751 77.494 62.5391 78.274C62.2151 79.054 61.7471 79.738 61.1351 80.326C60.5351 80.902 59.8271 81.352 59.0111 81.676C58.2071 81.988 57.3251 82.144 56.3651 82.144ZM56.3651 80.542C57.0611 80.542 57.7031 80.422 58.2911 80.182C58.8911 79.942 59.4071 79.606 59.8391 79.174C60.2831 78.73 60.6251 78.214 60.8651 77.626C61.1171 77.038 61.2431 76.396 61.2431 75.7C61.2431 75.004 61.1171 74.362 60.8651 73.774C60.6251 73.186 60.2831 72.676 59.8391 72.244C59.4071 71.8 58.8911 71.458 58.2911 71.218C57.7031 70.978 57.0611 70.858 56.3651 70.858C55.6571 70.858 55.0031 70.978 54.4031 71.218C53.8151 71.458 53.2991 71.8 52.8551 72.244C52.4111 72.676 52.0631 73.186 51.8111 73.774C51.5711 74.362 51.4511 75.004 51.4511 75.7C51.4511 76.396 51.5711 77.038 51.8111 77.626C52.0631 78.214 52.4111 78.73 52.8551 79.174C53.2991 79.606 53.8151 79.942 54.4031 80.182C55.0031 80.422 55.6571 80.542 56.3651 80.542ZM73.7943 82V69.4H78.7083C79.8123 69.4 80.7543 69.574 81.5343 69.922C82.3143 70.27 82.9143 70.774 83.3343 71.434C83.7543 72.094 83.9643 72.88 83.9643 73.792C83.9643 74.704 83.7543 75.49 83.3343 76.15C82.9143 76.798 82.3143 77.302 81.5343 77.662C80.7543 78.01 79.8123 78.184 78.7083 78.184H74.7843L75.5943 77.338V82H73.7943ZM75.5943 77.518L74.7843 76.618H78.6543C79.8063 76.618 80.6763 76.372 81.2643 75.88C81.8643 75.388 82.1643 74.692 82.1643 73.792C82.1643 72.892 81.8643 72.196 81.2643 71.704C80.6763 71.212 79.8063 70.966 78.6543 70.966H74.7843L75.5943 70.066V77.518ZM98.4565 82.144C97.4965 82.144 96.5785 82 95.7025 81.712C94.8265 81.412 94.1365 81.028 93.6325 80.56L94.2985 79.156C94.7785 79.576 95.3905 79.924 96.1345 80.2C96.8785 80.476 97.6525 80.614 98.4565 80.614C99.1885 80.614 99.7825 80.53 100.239 80.362C100.695 80.194 101.031 79.966 101.247 79.678C101.463 79.378 101.571 79.042 101.571 78.67C101.571 78.238 101.427 77.89 101.139 77.626C100.863 77.362 100.497 77.152 100.041 76.996C99.5965 76.828 99.1045 76.684 98.5645 76.564C98.0245 76.444 97.4785 76.306 96.9265 76.15C96.3865 75.982 95.8885 75.772 95.4325 75.52C94.9885 75.268 94.6285 74.932 94.3525 74.512C94.0765 74.08 93.9385 73.528 93.9385 72.856C93.9385 72.208 94.1065 71.614 94.4425 71.074C94.7905 70.522 95.3185 70.084 96.0265 69.76C96.7465 69.424 97.6585 69.256 98.7625 69.256C99.4945 69.256 100.221 69.352 100.941 69.544C101.661 69.736 102.285 70.012 102.813 70.372L102.219 71.812C101.679 71.452 101.109 71.194 100.509 71.038C99.9085 70.87 99.3265 70.786 98.7625 70.786C98.0545 70.786 97.4725 70.876 97.0165 71.056C96.5605 71.236 96.2245 71.476 96.0085 71.776C95.8045 72.076 95.7025 72.412 95.7025 72.784C95.7025 73.228 95.8405 73.582 96.1165 73.846C96.4045 74.11 96.7705 74.32 97.2145 74.476C97.6705 74.632 98.1685 74.776 98.7085 74.908C99.2485 75.028 99.7885 75.166 100.329 75.322C100.881 75.478 101.379 75.682 101.823 75.934C102.279 76.186 102.645 76.522 102.921 76.942C103.197 77.362 103.335 77.902 103.335 78.562C103.335 79.198 103.161 79.792 102.813 80.344C102.465 80.884 101.925 81.322 101.193 81.658C100.473 81.982 99.5605 82.144 98.4565 82.144ZM113.964 82V69.4H118.878C119.982 69.4 120.924 69.574 121.704 69.922C122.484 70.27 123.084 70.774 123.504 71.434C123.924 72.094 124.134 72.88 124.134 73.792C124.134 74.704 123.924 75.49 123.504 76.15C123.084 76.798 122.484 77.302 121.704 77.662C120.924 78.01 119.982 78.184 118.878 78.184H114.954L115.764 77.338V82H113.964ZM115.764 77.518L114.954 76.618H118.824C119.976 76.618 120.846 76.372 121.434 75.88C122.034 75.388 122.334 74.692 122.334 73.792C122.334 72.892 122.034 72.196 121.434 71.704C120.846 71.212 119.976 70.966 118.824 70.966H114.954L115.764 70.066V77.518ZM132.238 82L137.944 69.4H139.726L145.45 82H143.56L138.466 70.408H139.186L134.092 82H132.238ZM134.668 78.85L135.154 77.41H142.246L142.768 78.85H134.668ZM160.788 82.144C159.828 82.144 158.94 81.988 158.124 81.676C157.32 81.352 156.618 80.902 156.018 80.326C155.43 79.738 154.968 79.054 154.632 78.274C154.296 77.494 154.128 76.636 154.128 75.7C154.128 74.764 154.296 73.906 154.632 73.126C154.968 72.346 155.436 71.668 156.036 71.092C156.636 70.504 157.338 70.054 158.142 69.742C158.958 69.418 159.846 69.256 160.806 69.256C161.778 69.256 162.672 69.424 163.488 69.76C164.316 70.084 165.018 70.57 165.594 71.218L164.424 72.352C163.944 71.848 163.404 71.476 162.804 71.236C162.204 70.984 161.562 70.858 160.878 70.858C160.17 70.858 159.51 70.978 158.898 71.218C158.298 71.458 157.776 71.794 157.332 72.226C156.888 72.658 156.54 73.174 156.288 73.774C156.048 74.362 155.928 75.004 155.928 75.7C155.928 76.396 156.048 77.044 156.288 77.644C156.54 78.232 156.888 78.742 157.332 79.174C157.776 79.606 158.298 79.942 158.898 80.182C159.51 80.422 160.17 80.542 160.878 80.542C161.562 80.542 162.204 80.422 162.804 80.182C163.404 79.93 163.944 79.546 164.424 79.03L165.594 80.164C165.018 80.812 164.316 81.304 163.488 81.64C162.672 81.976 161.772 82.144 160.788 82.144ZM177.799 74.836H184.279V76.366H177.799V74.836ZM177.961 80.434H185.305V82H176.161V69.4H185.053V70.966H177.961V80.434Z" fill="white"/>
</svg>
