<svg width="570" height="978" viewBox="0 0 570 978" fill="none" xmlns="http://www.w3.org/2000/svg">
<path d="M71.6099 59.5062V261.258H14.4641V4.74153H68.2903L71.6099 59.5062ZM61.4138 123.517L42.9185 123.28C43.0766 105.104 45.6058 88.4296 50.5063 73.2567C55.5649 58.0838 62.5204 45.0446 71.3728 34.139C80.3834 23.2335 91.1328 14.8568 103.621 9.00891C116.109 3.00297 130.02 0 145.354 0C157.684 0 168.829 1.73856 178.788 5.21569C188.905 8.53476 197.52 13.9875 204.634 21.574C211.906 29.1604 217.438 39.0386 221.232 51.2086C225.026 63.2204 226.923 77.9982 226.923 95.5419V261.258H169.54V95.3048C169.54 82.9768 167.722 73.2567 164.087 66.1444C160.609 58.874 155.471 53.7374 148.674 50.7344C142.034 47.5734 133.735 45.9929 123.776 45.9929C113.975 45.9929 105.202 48.0475 97.456 52.1569C89.7101 56.2662 83.1498 61.877 77.7751 68.9893C72.5584 76.1016 68.5274 84.3203 65.682 93.6453C62.8365 102.97 61.4138 112.928 61.4138 123.517Z" fill="white" fill-opacity="0.1"/>
<path d="M466.348 266C447.378 266 430.226 262.918 414.893 256.754C399.717 250.432 386.754 241.66 376.005 230.439C365.414 219.217 357.273 206.02 351.582 190.847C345.891 175.674 343.045 159.316 343.045 141.772V132.289C343.045 112.216 345.97 94.0404 351.819 77.7611C357.668 61.4819 365.809 47.5734 376.242 36.0357C386.675 24.3399 399.006 15.41 413.233 9.24599C427.46 3.082 442.873 0 459.471 0C477.808 0 493.853 3.082 507.606 9.24599C521.359 15.41 532.741 24.1028 541.751 35.3244C550.92 46.388 557.718 59.5853 562.144 74.9162C566.728 90.2472 569.02 107.159 569.02 125.651V150.07H370.788V109.055H512.586V104.551C512.27 94.2775 510.215 84.6364 506.421 75.6275C502.785 66.6185 497.173 59.3482 489.585 53.8164C481.997 48.2846 471.88 45.5187 459.234 45.5187C449.749 45.5187 441.292 47.5734 433.862 51.6827C426.59 55.634 420.504 61.4029 415.604 68.9893C410.703 76.5758 406.91 85.7427 404.222 96.4902C401.693 107.08 400.428 119.012 400.428 132.289V141.772C400.428 152.993 401.93 163.425 404.934 173.066C408.095 182.549 412.679 190.847 418.686 197.959C424.694 205.071 431.965 210.682 440.501 214.791C449.038 218.743 458.76 220.718 469.667 220.718C483.42 220.718 495.671 217.952 506.421 212.421C517.17 206.889 526.497 199.065 534.401 188.95L564.515 218.111C558.982 226.171 551.789 233.916 542.937 241.344C534.085 248.614 523.256 254.541 510.452 259.125C497.805 263.708 483.104 266 466.348 266Z" fill="white" fill-opacity="0.1"/>
<path d="M229.769 352.242L278.615 437.352L328.41 352.242H391.247L313.472 478.129L394.33 608.758H331.493L279.327 520.092L227.16 608.758H164.087L244.707 478.129L167.169 352.242H229.769Z" fill="white" fill-opacity="0.1"/>
<path d="M156.025 903.295C156.025 897.605 154.602 892.468 151.756 887.885C148.911 883.143 143.457 878.876 135.395 875.083C127.491 871.29 115.793 867.813 100.302 864.651C86.7067 861.649 74.2183 858.092 62.8366 853.983C51.6129 849.716 41.9701 844.579 33.9081 838.573C25.846 832.567 19.6018 825.455 15.1756 817.236C10.7494 809.018 8.53632 799.534 8.53632 788.787C8.53632 778.356 10.8285 768.477 15.4128 759.152C19.9971 749.827 26.5574 741.609 35.0937 734.496C43.63 727.384 53.9841 721.773 66.1563 717.664C78.4865 713.555 92.2394 711.5 107.415 711.5C128.914 711.5 147.33 715.135 162.664 722.406C178.156 729.518 190.012 739.238 198.232 751.566C206.452 763.736 210.562 777.486 210.562 792.817H153.416C153.416 786.021 151.677 779.699 148.2 773.851C144.88 767.845 139.821 763.025 133.024 759.39C126.227 755.596 117.69 753.7 107.415 753.7C97.6141 753.7 89.4731 755.28 82.9919 758.441C76.6687 761.444 71.9262 765.395 68.7646 770.295C65.761 775.195 64.2593 780.568 64.2593 786.416C64.2593 790.684 65.0497 794.556 66.6305 798.033C68.3694 801.352 71.2148 804.434 75.1668 807.279C79.1188 809.966 84.4936 812.495 91.291 814.865C98.2466 817.236 106.941 819.528 117.374 821.741C136.976 825.85 153.811 831.145 167.881 837.625C182.108 843.947 193.015 852.165 200.603 862.281C208.191 872.238 211.985 884.882 211.985 900.213C211.985 911.593 209.535 922.024 204.634 931.507C199.892 940.832 192.936 948.972 183.768 955.926C174.599 962.722 163.612 968.017 150.808 971.81C138.162 975.603 123.934 977.5 108.126 977.5C84.8888 977.5 65.2079 973.391 49.0838 965.172C32.9596 956.795 20.7084 946.127 12.3302 933.167C4.11006 920.048 0 906.456 0 892.39H55.2488C55.8811 902.979 58.8056 911.435 64.0222 917.757C69.397 923.921 76.0364 928.425 83.9403 931.27C92.0024 933.957 100.301 935.3 108.838 935.3C119.113 935.3 127.728 933.957 134.684 931.27C141.639 928.425 146.935 924.632 150.571 919.89C154.207 914.991 156.025 909.459 156.025 903.295Z" fill="white" fill-opacity="0.1"/>
<path d="M474.647 921.313V798.981C474.647 789.814 472.987 781.912 469.667 775.274C466.348 768.635 461.289 763.499 454.492 759.864C447.852 756.228 439.474 754.411 429.357 754.411C420.03 754.411 411.968 755.991 405.171 759.152C398.373 762.313 393.078 766.581 389.284 771.955C385.49 777.328 383.593 783.413 383.593 790.209H326.684C326.684 780.094 329.134 770.295 334.035 760.812C338.935 751.329 346.049 742.873 355.376 735.445C364.702 728.016 375.847 722.168 388.809 717.901C401.772 713.634 416.315 711.5 432.439 711.5C451.725 711.5 468.798 714.74 483.657 721.22C498.675 727.7 510.452 737.499 518.988 750.618C527.683 763.578 532.03 779.857 532.03 799.455V913.489C532.03 925.185 532.82 935.695 534.401 945.021C536.14 954.187 538.59 962.169 541.751 968.965V972.758H483.183C480.496 966.594 478.362 958.771 476.781 949.288C475.358 939.647 474.647 930.322 474.647 921.313ZM482.946 816.762L483.42 852.086H442.398C431.807 852.086 422.481 853.114 414.418 855.168C406.356 857.065 399.638 859.91 394.263 863.703C388.889 867.496 384.857 872.08 382.17 877.454C379.483 882.827 378.139 888.912 378.139 895.709C378.139 902.505 379.72 908.748 382.882 914.438C386.043 919.969 390.627 924.316 396.634 927.477C402.8 930.638 410.229 932.218 418.924 932.218C430.622 932.218 440.818 929.848 449.512 925.106C458.364 920.206 465.32 914.28 470.379 907.325C475.437 900.213 478.124 893.496 478.441 887.174L496.936 912.541C495.039 919.021 491.798 925.975 487.214 933.404C482.63 940.832 476.623 947.944 469.193 954.741C461.921 961.379 453.148 966.832 442.873 971.099C432.756 975.366 421.058 977.5 407.779 977.5C391.023 977.5 376.084 974.181 362.963 967.543C349.843 960.747 339.568 951.659 332.138 940.279C324.708 928.741 320.993 915.702 320.993 901.161C320.993 887.569 323.523 875.557 328.581 865.126C333.798 854.536 341.386 845.685 351.345 838.573C361.462 831.461 373.792 826.087 388.335 822.452C402.879 818.659 419.477 816.762 438.13 816.762H482.946Z" fill="white" fill-opacity="0.1"/>
</svg>
