<svg width="20" height="19" viewBox="0 0 20 19" fill="none" xmlns="http://www.w3.org/2000/svg">
<path d="M11.8024 16.1339H8.51434C8.21451 16.1339 7.97286 15.8905 7.97286 15.5925V15.2119C7.97642 14.8847 7.96039 14.655 7.92596 14.5267C7.74131 13.8505 7.25267 13.2834 6.77946 12.7337C6.62331 12.5538 6.47607 12.3822 6.3407 12.2094C5.65969 11.3431 5.29752 10.3053 5.29752 9.20453C5.29752 6.51731 7.48482 4.33179 10.172 4.33179C12.8587 4.33179 15.0454 6.51731 15.0454 9.20453C15.0454 10.3059 14.685 11.3449 14.0022 12.2106C13.8828 12.3638 13.7451 12.5241 13.6014 12.6933C13.1169 13.2633 12.576 13.8991 12.3896 14.5707C12.357 14.6906 12.3409 14.9061 12.3433 15.2077V15.5913C12.3433 15.8905 12.1017 16.1339 11.8024 16.1339ZM9.05701 15.0498H11.2609C11.2669 14.6282 11.3078 14.4204 11.3452 14.2851C11.5964 13.3808 12.2186 12.6464 12.7678 12.0016C12.9121 11.8318 13.0386 11.6833 13.1508 11.542C13.681 10.8676 13.9618 10.0607 13.9618 9.20512C13.9618 7.11519 12.2626 5.41475 10.1726 5.41475C8.0827 5.41475 6.38226 7.11519 6.38226 9.20512C6.38226 10.0589 6.6625 10.8664 7.19329 11.5409C7.31857 11.7012 7.45572 11.8585 7.60119 12.0265C8.1017 12.6078 8.72215 13.328 8.9727 14.2429C9.00951 14.386 9.05226 14.6039 9.05701 15.0498Z" fill="white"/>
<path d="M11.8029 17.5679H8.51486C8.21502 17.5679 7.97337 17.3251 7.97337 17.0253C7.97337 16.726 8.21502 16.4844 8.51486 16.4844H11.8029C12.1022 16.4844 12.3438 16.726 12.3438 17.0253C12.3438 17.3251 12.1022 17.5679 11.8029 17.5679Z" fill="white"/>
<path d="M10.9808 18.9999H9.33672C9.03689 18.9999 8.79405 18.7571 8.79405 18.4584C8.79405 18.1592 9.03689 17.9158 9.33672 17.9158H10.9808C11.2788 17.9158 11.5222 18.1592 11.5222 18.4584C11.5222 18.7571 11.2788 18.9999 10.9808 18.9999Z" fill="white"/>
<path d="M18.8355 9.74605H16.6696C16.3704 9.74605 16.1269 9.5044 16.1269 9.20457C16.1269 8.90533 16.3704 8.66309 16.6696 8.66309H18.8355C19.1348 8.66309 19.3764 8.90533 19.3764 9.20457C19.3764 9.5044 19.1348 9.74605 18.8355 9.74605Z" fill="white"/>
<path d="M3.67445 9.74605H1.50793C1.20869 9.74605 0.967041 9.5044 0.967041 9.20457C0.967041 8.90533 1.20869 8.66309 1.50793 8.66309H3.67385C3.97309 8.66309 4.21652 8.90533 4.21652 9.20457C4.21712 9.5044 3.97369 9.74605 3.67445 9.74605Z" fill="white"/>
<path d="M10.1723 3.25008C9.87246 3.25008 9.62962 3.00843 9.62962 2.70859V0.541481C9.62962 0.242835 9.87246 0 10.1723 0C10.4721 0 10.7138 0.242835 10.7138 0.541481V2.708C10.7138 3.00783 10.4721 3.25008 10.1723 3.25008Z" fill="white"/>
<path d="M16.2958 15.8712C16.158 15.8712 16.0197 15.8184 15.9134 15.7121L14.3822 14.1803C14.1708 13.9695 14.1708 13.6258 14.3822 13.4138C14.5942 13.2024 14.9367 13.2036 15.1481 13.415L16.6793 14.9462C16.8913 15.1582 16.8913 15.5019 16.6793 15.7133C16.5736 15.8196 16.4359 15.8712 16.2958 15.8712Z" fill="white"/>
<path d="M5.57572 5.15308C5.43798 5.15308 5.29904 5.10024 5.19217 4.99396L3.66213 3.46333C3.45017 3.25137 3.45017 2.9076 3.66213 2.69564C3.87409 2.48427 4.21667 2.48427 4.42804 2.69564L5.95927 4.22686C6.17123 4.43823 6.17123 4.78259 5.95927 4.99396C5.85359 5.10024 5.71525 5.15308 5.57572 5.15308Z" fill="white"/>
<path d="M4.04509 15.8718C3.90675 15.8718 3.76841 15.8202 3.66213 15.7139C3.45017 15.5025 3.45017 15.1588 3.66213 14.9468L5.19455 13.4144C5.40473 13.203 5.74731 13.203 5.95927 13.4144C6.17123 13.6263 6.17123 13.9701 5.95927 14.1821L4.42804 15.7139C4.32176 15.8196 4.18402 15.8718 4.04509 15.8718Z" fill="white"/>
<path d="M14.766 5.15249C14.6277 5.15249 14.4893 5.09965 14.3825 4.99337C14.1723 4.782 14.1723 4.43883 14.3825 4.22746L15.9137 2.69623C16.1239 2.48486 16.4688 2.48367 16.6796 2.69504C16.8916 2.907 16.8916 3.24959 16.6796 3.46155L15.1496 4.99218C15.0439 5.09846 14.9055 5.15249 14.766 5.15249Z" fill="white"/>
</svg>
