<svg width="24" height="24" viewBox="0 0 24 24" fill="none" xmlns="http://www.w3.org/2000/svg">
<path d="M3 10.8162C3 14.4641 5.96807 17.4321 9.61597 17.4321C11.0585 17.4321 12.3768 16.9679 13.4628 16.1885L17.5419 20.2758C17.7326 20.4665 17.9813 20.5577 18.2466 20.5577C18.8103 20.5577 19.2 20.1349 19.2 19.5794C19.2 19.3141 19.1005 19.0737 18.9264 18.8996L14.8723 14.8206C15.7262 13.7096 16.2319 12.3251 16.2319 10.8162C16.2319 7.16826 13.2639 4.2002 9.61597 4.2002C5.96807 4.2002 3 7.16826 3 10.8162ZM4.41771 10.8162C4.41771 7.94759 6.74739 5.6179 9.61597 5.6179C12.4845 5.6179 14.8142 7.94759 14.8142 10.8162C14.8142 13.6847 12.4845 16.0144 9.61597 16.0144C6.74739 16.0144 4.41771 13.6847 4.41771 10.8162Z" fill="url(#paint0_linear_646_4578)"/>
<defs>
<linearGradient id="paint0_linear_646_4578" x1="3" y1="12.379" x2="19.2" y2="12.379" gradientUnits="userSpaceOnUse">
<stop stop-color="#FE5757"/>
<stop offset="1" stop-color="#8D52FD"/>
</linearGradient>
</defs>
</svg>
