<svg width="35" height="35" viewBox="0 0 35 35" fill="none" xmlns="http://www.w3.org/2000/svg">
<rect width="35" height="35" rx="17.5" fill="url(#paint0_linear_305_4646)"/>
<path fill-rule="evenodd" clip-rule="evenodd" d="M23.9975 10.2789C23.4855 10.3699 22.7858 10.6015 21.7659 10.9415L13.9226 13.5559C12.9293 13.887 12.2065 14.1281 11.6816 14.3329C11.1361 14.5458 10.8967 14.6866 10.7965 14.783C10.0543 15.4962 10.0543 16.6835 10.7965 17.3967C10.8967 17.4931 11.1361 17.6339 11.6816 17.8468C12.2065 18.0516 12.9293 18.2927 13.9226 18.6239C13.9384 18.6291 13.954 18.6343 13.9694 18.6395C14.3221 18.7569 14.5657 18.838 14.7868 18.955C15.3231 19.2386 15.7615 19.6769 16.045 20.2132C16.1619 20.4343 16.2431 20.6778 16.3606 21.0306C16.3658 21.046 16.371 21.0616 16.3762 21.0774C16.7072 22.0707 16.9484 22.7935 17.1532 23.3185C17.366 23.8639 17.5069 24.1033 17.6032 24.2036C18.3165 24.9458 19.5038 24.9458 20.2171 24.2036C20.3134 24.1033 20.4543 23.8639 20.6671 23.3185C20.8719 22.7935 21.1131 22.0707 21.4442 21.0774L24.0585 13.2341C24.3985 12.2142 24.63 11.5145 24.7212 11.0025C24.813 10.4861 24.7224 10.3688 24.6768 10.3232C24.6313 10.2776 24.5139 10.187 23.9975 10.2789ZM23.7859 9.0892C24.4019 8.97962 25.0487 8.98631 25.5312 9.46878C26.0137 9.95124 26.0203 10.5981 25.9109 11.2141C25.8024 11.8241 25.5409 12.6084 25.2214 13.5668L25.2048 13.6162L22.5905 21.4595L22.5845 21.4774C22.2606 22.4492 22.01 23.2009 21.7928 23.7577C21.5821 24.2974 21.3697 24.748 21.0883 25.0407C19.8997 26.2778 17.9207 26.2778 16.732 25.0407C16.4506 24.748 16.238 24.2974 16.0276 23.7576C15.8103 23.2009 15.5598 22.4492 15.2359 21.4775L15.2298 21.4595C15.0909 21.0425 15.0413 20.8999 14.9768 20.7781C14.8067 20.4563 14.5437 20.1933 14.2219 20.0231C14.1 19.9587 13.9576 19.9092 13.5405 19.7702L13.5225 19.7642C12.5508 19.4402 11.7991 19.1897 11.2424 18.9725C10.7027 18.7619 10.2521 18.5494 9.95922 18.268C8.72225 17.0794 8.72225 15.1004 9.95922 13.9117C10.2521 13.6303 10.7027 13.4178 11.2424 13.2073C11.7991 12.99 12.5508 12.7395 13.5226 12.4155L13.5405 12.4096L21.3839 9.79514L21.4332 9.77868C22.3916 9.45918 23.1759 9.1977 23.7859 9.0892Z" fill="white"/>
<defs>
<linearGradient id="paint0_linear_305_4646" x1="0" y1="17.5" x2="35" y2="17.5" gradientUnits="userSpaceOnUse">
<stop stop-color="#FE5757"/>
<stop offset="1" stop-color="#8D52FD"/>
</linearGradient>
</defs>
</svg>
