<svg width="17" height="17" viewBox="0 0 17 17" fill="none" xmlns="http://www.w3.org/2000/svg">
<path fill-rule="evenodd" clip-rule="evenodd" d="M8.73668 10.6947C7.57475 10.6947 6.6329 9.71186 6.6329 8.49944C6.6329 7.28701 7.57475 6.3042 8.73668 6.3042C9.89849 6.3042 10.8404 7.28701 10.8404 8.49944C10.8404 9.08161 10.6187 9.63997 10.2243 10.0517C9.82977 10.4634 9.29466 10.6947 8.73668 10.6947Z" stroke="white" stroke-width="1.5" stroke-linecap="round" stroke-linejoin="round"/>
<path fill-rule="evenodd" clip-rule="evenodd" d="M14.3864 12.8542V11.4162C14.3864 11.0601 14.5244 10.7186 14.77 10.4668L15.7621 9.44986C16.2736 8.92554 16.2736 8.07536 15.7621 7.55105L14.77 6.53413C14.5244 6.28233 14.3864 5.94082 14.3864 5.58472V4.14561C14.3864 3.40408 13.8 2.80294 13.0766 2.80294H11.6727C11.3253 2.80294 10.9921 2.66147 10.7465 2.40968L9.7544 1.39276C9.24287 0.868427 8.41356 0.868427 7.90204 1.39276L6.91005 2.40968C6.66441 2.66147 6.33125 2.80294 5.98387 2.80294H4.57996C4.23239 2.80294 3.89908 2.94455 3.65341 3.19658C3.40774 3.44861 3.26987 3.7904 3.27015 4.14668V5.58472C3.27014 5.94082 3.13214 6.28233 2.8865 6.53413L1.89447 7.55105C1.38296 8.07536 1.38296 8.92554 1.89447 9.44986L2.8865 10.4668C3.13214 10.7186 3.27014 11.0601 3.27015 11.4162V12.8542C3.27015 13.5957 3.85657 14.1969 4.57996 14.1969H5.98387C6.33125 14.1969 6.66441 14.3383 6.91005 14.5901L7.90204 15.6071C8.41356 16.1314 9.24287 16.1314 9.7544 15.6071L10.7465 14.5901C10.9921 14.3383 11.3253 14.1969 11.6727 14.1969H13.0755C13.4231 14.1972 13.7565 14.0559 14.0024 13.8039C14.2482 13.5521 14.3864 13.2105 14.3864 12.8542Z" stroke="white" stroke-width="1.5" stroke-linecap="round" stroke-linejoin="round"/>
</svg>
