<svg width="12" height="20" viewBox="0 0 12 20" fill="none" xmlns="http://www.w3.org/2000/svg">
<path d="M1.18968 9.14104C1.3327 9.00279 1.52478 8.92703 1.72366 8.9304C1.92254 8.93378 2.11194 9.01602 2.25018 9.15904L4.65468 11.6483L10.1859 6.18154C10.3301 6.05745 10.5161 5.99279 10.7061 6.00064C10.8962 6.00849 11.0762 6.08827 11.2096 6.22382C11.3431 6.35937 11.42 6.54057 11.4249 6.73073C11.4298 6.92089 11.3622 7.10581 11.2359 7.24804L5.16768 13.248C5.02786 13.3863 4.83933 13.4642 4.64268 13.4648H4.63593C4.53695 13.4642 4.43907 13.444 4.34794 13.4054C4.2568 13.3667 4.17421 13.3105 4.10493 13.2398L1.17168 10.2015C1.03344 10.0585 0.95767 9.86644 0.961046 9.66756C0.964421 9.46868 1.04666 9.27928 1.18968 9.14104Z" fill="#FD5757"/>
</svg>
