<svg width="25" height="25" viewBox="0 0 25 25" fill="none" xmlns="http://www.w3.org/2000/svg">
<path fill-rule="evenodd" clip-rule="evenodd" d="M9.25621 3.50313C12.3208 0.568752 17.277 0.568752 20.3427 3.50313C23.427 6.45521 23.427 11.2573 20.3427 14.2104L12.0635 22.1354C9.88642 24.2188 6.36975 24.2188 4.19267 22.1354C3.67244 21.6455 3.2579 21.0544 2.97456 20.3984C2.69122 19.7424 2.54505 19.0354 2.54505 18.3208C2.54505 17.6063 2.69122 16.8992 2.97456 16.2432C3.2579 15.5872 3.67244 14.9961 4.19267 14.5063L12.3531 6.69583C12.9821 6.10151 13.8148 5.7704 14.6802 5.7704C15.5456 5.7704 16.3782 6.10151 17.0073 6.69583C17.3173 6.98799 17.5644 7.34047 17.7333 7.7316C17.9022 8.12274 17.9893 8.54428 17.9893 8.97031C17.9893 9.39635 17.9022 9.81789 17.7333 10.209C17.5644 10.6002 17.3173 10.9526 17.0073 11.2448L8.7885 19.1135C8.71436 19.1845 8.62696 19.2402 8.53129 19.2775C8.43563 19.3147 8.33357 19.3327 8.23094 19.3305C8.12831 19.3282 8.02712 19.3058 7.93316 19.2645C7.8392 19.2232 7.75429 19.1637 7.6833 19.0896C7.6123 19.0154 7.5566 18.928 7.51938 18.8324C7.48217 18.7367 7.46415 18.6346 7.46638 18.532C7.4686 18.4294 7.49102 18.3282 7.53235 18.2342C7.57368 18.1403 7.63311 18.0554 7.70725 17.9844L15.926 10.1167C16.0834 9.97016 16.2088 9.79281 16.2947 9.59567C16.3805 9.39853 16.4247 9.18584 16.4247 8.97084C16.4247 8.75583 16.3805 8.54314 16.2947 8.346C16.2088 8.14886 16.0834 7.97151 15.926 7.825C15.5878 7.50918 15.1424 7.33351 14.6797 7.33351C14.2169 7.33351 13.7715 7.50918 13.4333 7.825L5.27288 15.6354C4.90513 15.9794 4.61196 16.3952 4.41152 16.8572C4.21109 17.3191 4.10766 17.8173 4.10766 18.3208C4.10766 18.8244 4.21109 19.3226 4.41152 19.7845C4.61196 20.2464 4.90513 20.6623 5.27288 21.0063C6.8458 22.5115 9.41038 22.5115 10.9833 21.0063L19.2625 13.0813C21.7041 10.7438 21.7041 6.96875 19.2625 4.63125C16.801 2.27604 12.7979 2.27604 10.3354 4.63125L3.66559 11.0167C3.51599 11.1602 3.3155 11.2384 3.10824 11.2341C2.90097 11.2298 2.7039 11.1433 2.56038 10.9938C2.41686 10.8442 2.33864 10.6437 2.34294 10.4364C2.34724 10.2291 2.4337 10.0321 2.5833 9.88854L9.25621 3.50313Z" fill="#8D52FC"/>
</svg>
